<svg xmlns="http://www.w3.org/2000/svg" xmlns:xlink="http://www.w3.org/1999/xlink" width="60" zoomAndPan="magnify" viewBox="0 0 45 44.999999" height="60" preserveAspectRatio="xMidYMid meet" version="1.0"><defs><g/><clipPath id="b8598c929f"><path d="M 21 3.320312 L 24 3.320312 L 24 8 L 21 8 Z M 21 3.320312 " clip-rule="nonzero"/></clipPath><clipPath id="5ff51b8e71"><path d="M 16 14 L 29 14 L 29 31.820312 L 16 31.820312 Z M 16 14 " clip-rule="nonzero"/></clipPath><clipPath id="76645c2471"><path d="M 11 15 L 19 15 L 19 31.820312 L 11 31.820312 Z M 11 15 " clip-rule="nonzero"/></clipPath><clipPath id="7449226fc1"><path d="M 26 15 L 34 15 L 34 31.820312 L 26 31.820312 Z M 26 15 " clip-rule="nonzero"/></clipPath><clipPath id="4132e918db"><path d="M 32 16 L 39.234375 16 L 39.234375 31 L 32 31 Z M 32 16 " clip-rule="nonzero"/></clipPath><clipPath id="f27793fbd1"><path d="M 5.484375 16 L 13 16 L 13 31 L 5.484375 31 Z M 5.484375 16 " clip-rule="nonzero"/></clipPath></defs><g clip-path="url(#b8598c929f)"><path fill="#3a9558" d="M 22.347656 3.445312 C 22.777344 3.335938 23.253906 3.695312 23.242188 4.144531 C 23.25 4.964844 23.242188 5.785156 23.230469 6.601562 C 23.222656 7 22.804688 7.304688 22.421875 7.253906 C 22.089844 7.222656 21.789062 6.941406 21.773438 6.601562 C 21.769531 5.78125 21.773438 4.964844 21.769531 4.148438 C 21.761719 3.816406 22.023438 3.507812 22.347656 3.445312 Z M 22.347656 3.445312 " fill-opacity="1" fill-rule="nonzero"/></g><path fill="#3a9558" d="M 17.851562 5.441406 C 18.074219 5.371094 18.332031 5.40625 18.511719 5.5625 C 19.058594 6.042969 19.601562 6.527344 20.15625 7.003906 C 20.421875 7.21875 20.433594 7.644531 20.234375 7.910156 C 20.019531 8.21875 19.535156 8.304688 19.238281 8.058594 C 18.738281 7.636719 18.269531 7.179688 17.765625 6.761719 C 17.628906 6.640625 17.460938 6.539062 17.394531 6.359375 C 17.253906 5.996094 17.472656 5.542969 17.851562 5.441406 Z M 17.851562 5.441406 " fill-opacity="1" fill-rule="nonzero"/><path fill="#3a9558" d="M 26.707031 5.441406 C 27.28125 5.214844 27.925781 5.9375 27.550781 6.460938 C 26.992188 6.992188 26.398438 7.488281 25.835938 8.019531 C 25.574219 8.289062 25.097656 8.257812 24.847656 7.984375 C 24.582031 7.730469 24.578125 7.242188 24.867188 7.003906 C 25.351562 6.578125 25.824219 6.140625 26.304688 5.71875 C 26.429688 5.613281 26.546875 5.488281 26.707031 5.441406 Z M 26.707031 5.441406 " fill-opacity="1" fill-rule="nonzero"/><path fill="#3a9558" d="M 22.125 8.488281 C 23.363281 8.273438 24.695312 9.132812 24.949219 10.375 C 25.230469 11.46875 24.652344 12.679688 23.667969 13.203125 C 22.84375 13.660156 21.769531 13.5625 21.027344 12.988281 C 20.246094 12.421875 19.871094 11.378906 20.085938 10.441406 C 20.273438 9.449219 21.125 8.632812 22.125 8.488281 Z M 22.125 8.488281 " fill-opacity="1" fill-rule="nonzero"/><path fill="#3b4551" d="M 15.765625 10.035156 C 16.652344 9.90625 17.59375 10.332031 18.066406 11.09375 C 18.703125 12.066406 18.464844 13.492188 17.527344 14.191406 C 16.671875 14.917969 15.300781 14.828125 14.5 14.066406 C 13.757812 13.394531 13.542969 12.230469 13.980469 11.332031 C 14.304688 10.632812 15.003906 10.132812 15.765625 10.035156 Z M 15.765625 10.035156 " fill-opacity="1" fill-rule="nonzero"/><path fill="#3b4551" d="M 28.617188 10.035156 C 29.617188 9.878906 30.671875 10.457031 31.074219 11.386719 C 31.507812 12.335938 31.210938 13.558594 30.371094 14.1875 C 29.511719 14.914062 28.121094 14.835938 27.328125 14.042969 C 26.648438 13.40625 26.410156 12.351562 26.769531 11.488281 C 27.070312 10.722656 27.800781 10.148438 28.617188 10.035156 Z M 28.617188 10.035156 " fill-opacity="1" fill-rule="nonzero"/><path fill="#3b4551" d="M 9.769531 11.113281 C 10.996094 10.839844 12.324219 11.828125 12.375 13.089844 C 12.480469 14.109375 11.777344 15.136719 10.789062 15.398438 C 9.613281 15.761719 8.242188 14.945312 8.019531 13.734375 C 7.738281 12.570312 8.578125 11.292969 9.769531 11.113281 Z M 9.769531 11.113281 " fill-opacity="1" fill-rule="nonzero"/><path fill="#3b4551" d="M 34.425781 11.113281 C 35.289062 10.929688 36.222656 11.339844 36.703125 12.074219 C 37.273438 12.925781 37.125 14.171875 36.359375 14.863281 C 35.691406 15.53125 34.574219 15.667969 33.757812 15.195312 C 32.898438 14.742188 32.453125 13.679688 32.695312 12.746094 C 32.882812 11.921875 33.597656 11.265625 34.425781 11.113281 Z M 34.425781 11.113281 " fill-opacity="1" fill-rule="nonzero"/><g clip-path="url(#5ff51b8e71)"><path fill="#3a9558" d="M 19.625 14.117188 C 21.433594 14.082031 23.246094 14.105469 25.054688 14.097656 C 26.519531 14.09375 27.980469 15.261719 28.058594 16.769531 C 28.066406 18.617188 28.0625 20.464844 28.0625 22.308594 C 28.070312 22.699219 27.8125 23.074219 27.445312 23.203125 C 26.917969 23.402344 26.25 23.023438 26.203125 22.449219 C 26.1875 20.675781 26.21875 18.902344 26.183594 17.132812 C 26.15625 16.75 25.515625 16.761719 25.488281 17.140625 C 25.46875 19.210938 25.496094 21.285156 25.472656 23.355469 C 25.328125 25.773438 25.171875 28.191406 25.027344 30.613281 C 24.957031 31.132812 24.4375 31.53125 23.917969 31.515625 C 23.398438 31.519531 22.882812 31.109375 22.84375 30.574219 C 22.824219 28.363281 22.851562 26.152344 22.828125 23.941406 C 22.824219 23.582031 22.226562 23.542969 22.175781 23.898438 C 22.164062 26.09375 22.179688 28.289062 22.167969 30.484375 C 22.167969 31.027344 21.671875 31.476562 21.148438 31.507812 C 20.582031 31.554688 20.003906 31.105469 19.964844 30.53125 C 19.828125 28.136719 19.664062 25.746094 19.550781 23.355469 C 19.542969 21.28125 19.554688 19.210938 19.546875 17.136719 C 19.515625 16.757812 18.878906 16.75 18.855469 17.140625 C 18.84375 18.878906 18.855469 20.617188 18.847656 22.355469 C 18.84375 22.839844 18.40625 23.261719 17.925781 23.253906 C 17.4375 23.285156 16.972656 22.851562 16.980469 22.359375 C 16.980469 20.496094 16.976562 18.632812 16.980469 16.769531 C 17.058594 15.390625 18.289062 14.269531 19.625 14.117188 Z M 19.625 14.117188 " fill-opacity="1" fill-rule="nonzero"/></g><g clip-path="url(#76645c2471)"><path fill="#3b4551" d="M 11.195312 17.769531 C 11.257812 16.4375 12.472656 15.324219 13.792969 15.285156 C 14.765625 15.277344 15.738281 15.28125 16.714844 15.28125 C 16.445312 15.765625 16.269531 16.304688 16.273438 16.863281 C 16.277344 18.691406 16.277344 20.523438 16.265625 22.355469 C 16.265625 22.941406 16.617188 23.519531 17.152344 23.769531 C 17.6875 24.058594 18.367188 23.984375 18.871094 23.664062 C 18.757812 25.90625 18.601562 28.152344 18.472656 30.394531 C 18.40625 31.070312 17.566406 31.445312 16.976562 31.160156 C 16.675781 31.023438 16.421875 30.734375 16.40625 30.390625 C 16.402344 28.316406 16.410156 26.246094 16.398438 24.171875 C 16.398438 23.773438 15.75 23.777344 15.746094 24.167969 C 15.734375 26.214844 15.742188 28.257812 15.738281 30.304688 C 15.746094 30.839844 15.214844 31.261719 14.703125 31.25 C 14.199219 31.265625 13.683594 30.867188 13.660156 30.351562 C 13.546875 28.015625 13.382812 25.6875 13.285156 23.355469 C 13.28125 21.585938 13.292969 19.816406 13.28125 18.046875 C 13.246094 17.691406 12.648438 17.679688 12.609375 18.039062 C 12.59375 19.644531 12.609375 21.253906 12.601562 22.859375 C 12.609375 23.210938 12.277344 23.503906 11.933594 23.507812 C 11.554688 23.527344 11.199219 23.191406 11.199219 22.8125 C 11.195312 21.132812 11.191406 19.449219 11.195312 17.769531 Z M 11.195312 17.769531 " fill-opacity="1" fill-rule="nonzero"/></g><g clip-path="url(#7449226fc1)"><path fill="#3b4551" d="M 28.355469 15.285156 C 29.296875 15.285156 30.242188 15.277344 31.1875 15.28125 C 32.484375 15.316406 33.738281 16.347656 33.828125 17.679688 C 33.835938 19.375 33.824219 21.070312 33.828125 22.765625 C 33.84375 23.160156 33.488281 23.515625 33.09375 23.507812 C 32.746094 23.515625 32.40625 23.214844 32.421875 22.859375 C 32.421875 21.253906 32.421875 19.644531 32.417969 18.039062 C 32.386719 17.671875 31.769531 17.671875 31.746094 18.046875 C 31.726562 19.816406 31.746094 21.585938 31.734375 23.355469 C 31.652344 25.726562 31.480469 28.097656 31.339844 30.464844 C 31.21875 31.097656 30.4375 31.414062 29.875 31.160156 C 29.566406 31.035156 29.300781 30.742188 29.285156 30.394531 C 29.277344 28.304688 29.292969 26.214844 29.277344 24.125 C 29.257812 23.75 28.65625 23.761719 28.625 24.125 C 28.621094 26.230469 28.628906 28.335938 28.621094 30.4375 C 28.550781 30.984375 27.941406 31.34375 27.421875 31.242188 C 26.992188 31.179688 26.578125 30.84375 26.542969 30.394531 C 26.40625 28.140625 26.257812 25.882812 26.144531 23.628906 C 26.542969 23.890625 27.042969 24.027344 27.515625 23.914062 C 28.238281 23.757812 28.789062 23.046875 28.761719 22.308594 C 28.75 20.476562 28.765625 18.644531 28.75 16.8125 C 28.75 16.28125 28.585938 15.761719 28.355469 15.285156 Z M 28.355469 15.285156 " fill-opacity="1" fill-rule="nonzero"/></g><g clip-path="url(#4132e918db)"><path fill="#3b4551" d="M 33.984375 16.066406 C 34.945312 16.066406 35.90625 16.054688 36.863281 16.066406 C 38.144531 16.113281 39.347656 17.1875 39.394531 18.496094 C 39.394531 20.117188 39.394531 21.738281 39.386719 23.355469 C 39.402344 23.753906 39.019531 24.085938 38.632812 24.066406 C 38.292969 24.082031 37.964844 23.792969 37.960938 23.449219 C 37.957031 21.875 37.964844 20.296875 37.964844 18.722656 C 37.949219 18.402344 37.429688 18.40625 37.40625 18.722656 C 37.382812 20.597656 37.425781 22.476562 37.378906 24.351562 C 37.269531 26.289062 37.140625 28.222656 37.027344 30.160156 C 37 30.527344 36.695312 30.832031 36.347656 30.917969 C 35.824219 31.070312 35.167969 30.695312 35.164062 30.121094 C 35.15625 28.292969 35.167969 26.460938 35.15625 24.632812 C 35.105469 24.335938 34.617188 24.347656 34.570312 24.644531 C 34.558594 26.46875 34.570312 28.292969 34.566406 30.121094 C 34.558594 30.527344 34.203125 30.867188 33.816406 30.929688 C 33.324219 31.039062 32.734375 30.695312 32.699219 30.167969 C 32.585938 28.109375 32.4375 26.054688 32.351562 23.992188 C 32.785156 24.222656 33.339844 24.296875 33.78125 24.042969 C 34.261719 23.792969 34.515625 23.242188 34.507812 22.71875 C 34.503906 21.054688 34.515625 19.390625 34.496094 17.722656 C 34.5 17.136719 34.300781 16.558594 33.984375 16.066406 Z M 33.984375 16.066406 " fill-opacity="1" fill-rule="nonzero"/></g><g clip-path="url(#f27793fbd1)"><path fill="#3b4551" d="M 5.605469 18.496094 C 5.667969 17.199219 6.847656 16.140625 8.121094 16.074219 C 9.097656 16.054688 10.074219 16.082031 11.050781 16.058594 C 10.726562 16.570312 10.519531 17.160156 10.519531 17.769531 C 10.519531 19.464844 10.511719 21.160156 10.519531 22.855469 C 10.53125 23.464844 10.976562 24.03125 11.574219 24.164062 C 11.949219 24.269531 12.339844 24.164062 12.675781 23.992188 C 12.578125 26.058594 12.425781 28.125 12.308594 30.191406 C 12.257812 30.542969 11.976562 30.832031 11.636719 30.917969 C 11.117188 31.078125 10.457031 30.691406 10.445312 30.125 C 10.445312 28.304688 10.449219 26.488281 10.441406 24.671875 C 10.417969 24.335938 9.867188 24.328125 9.84375 24.671875 C 9.824219 26.515625 9.851562 28.359375 9.828125 30.207031 C 9.734375 30.914062 8.753906 31.191406 8.257812 30.707031 C 8.082031 30.542969 7.972656 30.3125 7.976562 30.074219 C 7.863281 27.96875 7.742188 25.867188 7.613281 23.761719 C 7.605469 22.082031 7.621094 20.402344 7.609375 18.71875 C 7.589844 18.394531 7.058594 18.40625 7.050781 18.730469 C 7.042969 20.285156 7.050781 21.84375 7.046875 23.398438 C 7.054688 23.765625 6.710938 24.085938 6.347656 24.078125 C 5.960938 24.09375 5.585938 23.75 5.605469 23.355469 C 5.605469 21.734375 5.601562 20.117188 5.605469 18.496094 Z M 5.605469 18.496094 " fill-opacity="1" fill-rule="nonzero"/></g><g fill="#000000" fill-opacity="1"><g transform="translate(9.8275, 37.423997)"><g><path d="M 1.171875 -2.734375 L 1.171875 -1.84375 L 2.734375 -1.84375 L 2.734375 -1.21875 L 1.171875 -1.21875 L 1.171875 0 L 0.390625 0 L 0.390625 -3.359375 L 2.9375 -3.359375 L 2.9375 -2.734375 Z M 1.171875 -2.734375 "/></g></g></g><g fill="#000000" fill-opacity="1"><g transform="translate(12.894724, 37.423997)"><g><path d="M 1.0625 -2.234375 C 1.144531 -2.359375 1.265625 -2.453125 1.421875 -2.515625 C 1.578125 -2.585938 1.753906 -2.625 1.953125 -2.625 L 1.953125 -1.921875 C 1.867188 -1.929688 1.8125 -1.9375 1.78125 -1.9375 C 1.5625 -1.9375 1.390625 -1.875 1.265625 -1.75 C 1.148438 -1.632812 1.09375 -1.457031 1.09375 -1.21875 L 1.09375 0 L 0.34375 0 L 0.34375 -2.578125 L 1.0625 -2.578125 Z M 1.0625 -2.234375 "/></g></g></g><g fill="#000000" fill-opacity="1"><g transform="translate(14.963541, 37.423997)"><g><path d="M 1.390625 -2.625 C 1.785156 -2.625 2.085938 -2.523438 2.296875 -2.328125 C 2.515625 -2.140625 2.625 -1.851562 2.625 -1.46875 L 2.625 0 L 1.921875 0 L 1.921875 -0.328125 C 1.785156 -0.0859375 1.523438 0.03125 1.140625 0.03125 C 0.941406 0.03125 0.769531 0 0.625 -0.0625 C 0.476562 -0.125 0.363281 -0.210938 0.28125 -0.328125 C 0.207031 -0.453125 0.171875 -0.59375 0.171875 -0.75 C 0.171875 -0.988281 0.257812 -1.175781 0.4375 -1.3125 C 0.625 -1.445312 0.90625 -1.515625 1.28125 -1.515625 L 1.875 -1.515625 C 1.875 -1.679688 1.820312 -1.804688 1.71875 -1.890625 C 1.625 -1.984375 1.476562 -2.03125 1.28125 -2.03125 C 1.144531 -2.03125 1.007812 -2.003906 0.875 -1.953125 C 0.75 -1.910156 0.640625 -1.851562 0.546875 -1.78125 L 0.265625 -2.3125 C 0.410156 -2.40625 0.582031 -2.476562 0.78125 -2.53125 C 0.976562 -2.59375 1.179688 -2.625 1.390625 -2.625 Z M 1.328125 -0.46875 C 1.453125 -0.46875 1.5625 -0.492188 1.65625 -0.546875 C 1.757812 -0.609375 1.832031 -0.695312 1.875 -0.8125 L 1.875 -1.078125 L 1.359375 -1.078125 C 1.054688 -1.078125 0.90625 -0.976562 0.90625 -0.78125 C 0.90625 -0.6875 0.941406 -0.609375 1.015625 -0.546875 C 1.085938 -0.492188 1.191406 -0.46875 1.328125 -0.46875 Z M 1.328125 -0.46875 "/></g></g></g><g fill="#000000" fill-opacity="1"><g transform="translate(17.925162, 37.423997)"><g><path d="M 1.59375 0.03125 C 1.320312 0.03125 1.070312 -0.0195312 0.84375 -0.125 C 0.625 -0.238281 0.453125 -0.394531 0.328125 -0.59375 C 0.210938 -0.800781 0.15625 -1.035156 0.15625 -1.296875 C 0.15625 -1.546875 0.210938 -1.769531 0.328125 -1.96875 C 0.453125 -2.175781 0.625 -2.335938 0.84375 -2.453125 C 1.070312 -2.566406 1.320312 -2.625 1.59375 -2.625 C 1.863281 -2.625 2.097656 -2.566406 2.296875 -2.453125 C 2.503906 -2.335938 2.65625 -2.175781 2.75 -1.96875 L 2.171875 -1.65625 C 2.035156 -1.882812 1.84375 -2 1.59375 -2 C 1.394531 -2 1.226562 -1.9375 1.09375 -1.8125 C 0.96875 -1.6875 0.90625 -1.515625 0.90625 -1.296875 C 0.90625 -1.066406 0.96875 -0.890625 1.09375 -0.765625 C 1.226562 -0.640625 1.394531 -0.578125 1.59375 -0.578125 C 1.84375 -0.578125 2.035156 -0.695312 2.171875 -0.9375 L 2.75 -0.609375 C 2.65625 -0.410156 2.503906 -0.253906 2.296875 -0.140625 C 2.097656 -0.0234375 1.863281 0.03125 1.59375 0.03125 Z M 1.59375 0.03125 "/></g></g></g><g fill="#000000" fill-opacity="1"><g transform="translate(20.761985, 37.423997)"><g><path d="M 2.015625 -0.125 C 1.941406 -0.0703125 1.847656 -0.03125 1.734375 0 C 1.628906 0.0195312 1.519531 0.03125 1.40625 0.03125 C 1.09375 0.03125 0.851562 -0.046875 0.6875 -0.203125 C 0.519531 -0.359375 0.4375 -0.585938 0.4375 -0.890625 L 0.4375 -1.953125 L 0.03125 -1.953125 L 0.03125 -2.515625 L 0.4375 -2.515625 L 0.4375 -3.15625 L 1.1875 -3.15625 L 1.1875 -2.515625 L 1.828125 -2.515625 L 1.828125 -1.953125 L 1.1875 -1.953125 L 1.1875 -0.890625 C 1.1875 -0.785156 1.210938 -0.703125 1.265625 -0.640625 C 1.328125 -0.585938 1.40625 -0.5625 1.5 -0.5625 C 1.625 -0.5625 1.726562 -0.59375 1.8125 -0.65625 Z M 2.015625 -0.125 "/></g></g></g><g fill="#000000" fill-opacity="1"><g transform="translate(22.849997, 37.423997)"><g><path d="M 0.34375 -2.578125 L 1.09375 -2.578125 L 1.09375 0 L 0.34375 0 Z M 0.71875 -2.9375 C 0.582031 -2.9375 0.46875 -2.976562 0.375 -3.0625 C 0.289062 -3.144531 0.25 -3.242188 0.25 -3.359375 C 0.25 -3.472656 0.289062 -3.570312 0.375 -3.65625 C 0.46875 -3.738281 0.582031 -3.78125 0.71875 -3.78125 C 0.851562 -3.78125 0.960938 -3.738281 1.046875 -3.65625 C 1.140625 -3.582031 1.1875 -3.488281 1.1875 -3.375 C 1.1875 -3.25 1.140625 -3.144531 1.046875 -3.0625 C 0.960938 -2.976562 0.851562 -2.9375 0.71875 -2.9375 Z M 0.71875 -2.9375 "/></g></g></g><g fill="#000000" fill-opacity="1"><g transform="translate(24.294809, 37.423997)"><g><path d="M 1.578125 0.03125 C 1.304688 0.03125 1.0625 -0.0195312 0.84375 -0.125 C 0.625 -0.238281 0.453125 -0.394531 0.328125 -0.59375 C 0.210938 -0.800781 0.15625 -1.035156 0.15625 -1.296875 C 0.15625 -1.546875 0.210938 -1.769531 0.328125 -1.96875 C 0.453125 -2.175781 0.625 -2.335938 0.84375 -2.453125 C 1.0625 -2.566406 1.304688 -2.625 1.578125 -2.625 C 1.847656 -2.625 2.085938 -2.566406 2.296875 -2.453125 C 2.515625 -2.335938 2.679688 -2.175781 2.796875 -1.96875 C 2.921875 -1.769531 2.984375 -1.546875 2.984375 -1.296875 C 2.984375 -1.035156 2.921875 -0.800781 2.796875 -0.59375 C 2.679688 -0.394531 2.515625 -0.238281 2.296875 -0.125 C 2.085938 -0.0195312 1.847656 0.03125 1.578125 0.03125 Z M 1.578125 -0.578125 C 1.765625 -0.578125 1.921875 -0.640625 2.046875 -0.765625 C 2.171875 -0.898438 2.234375 -1.078125 2.234375 -1.296875 C 2.234375 -1.503906 2.171875 -1.671875 2.046875 -1.796875 C 1.921875 -1.929688 1.765625 -2 1.578125 -2 C 1.378906 -2 1.21875 -1.929688 1.09375 -1.796875 C 0.96875 -1.671875 0.90625 -1.503906 0.90625 -1.296875 C 0.90625 -1.078125 0.96875 -0.898438 1.09375 -0.765625 C 1.21875 -0.640625 1.378906 -0.578125 1.578125 -0.578125 Z M 1.578125 -0.578125 "/></g></g></g><g fill="#000000" fill-opacity="1"><g transform="translate(27.438834, 37.423997)"><g><path d="M 1.90625 -2.625 C 2.226562 -2.625 2.488281 -2.523438 2.6875 -2.328125 C 2.882812 -2.140625 2.984375 -1.859375 2.984375 -1.484375 L 2.984375 0 L 2.234375 0 L 2.234375 -1.359375 C 2.234375 -1.566406 2.1875 -1.71875 2.09375 -1.8125 C 2.007812 -1.914062 1.882812 -1.96875 1.71875 -1.96875 C 1.519531 -1.96875 1.363281 -1.910156 1.25 -1.796875 C 1.144531 -1.679688 1.09375 -1.507812 1.09375 -1.28125 L 1.09375 0 L 0.34375 0 L 0.34375 -2.578125 L 1.0625 -2.578125 L 1.0625 -2.28125 C 1.15625 -2.382812 1.273438 -2.46875 1.421875 -2.53125 C 1.578125 -2.59375 1.738281 -2.625 1.90625 -2.625 Z M 1.90625 -2.625 "/></g></g></g><g fill="#000000" fill-opacity="1"><g transform="translate(30.755655, 37.423997)"><g><path d="M 1.390625 -2.625 C 1.785156 -2.625 2.085938 -2.523438 2.296875 -2.328125 C 2.515625 -2.140625 2.625 -1.851562 2.625 -1.46875 L 2.625 0 L 1.921875 0 L 1.921875 -0.328125 C 1.785156 -0.0859375 1.523438 0.03125 1.140625 0.03125 C 0.941406 0.03125 0.769531 0 0.625 -0.0625 C 0.476562 -0.125 0.363281 -0.210938 0.28125 -0.328125 C 0.207031 -0.453125 0.171875 -0.59375 0.171875 -0.75 C 0.171875 -0.988281 0.257812 -1.175781 0.4375 -1.3125 C 0.625 -1.445312 0.90625 -1.515625 1.28125 -1.515625 L 1.875 -1.515625 C 1.875 -1.679688 1.820312 -1.804688 1.71875 -1.890625 C 1.625 -1.984375 1.476562 -2.03125 1.28125 -2.03125 C 1.144531 -2.03125 1.007812 -2.003906 0.875 -1.953125 C 0.75 -1.910156 0.640625 -1.851562 0.546875 -1.78125 L 0.265625 -2.3125 C 0.410156 -2.40625 0.582031 -2.476562 0.78125 -2.53125 C 0.976562 -2.59375 1.179688 -2.625 1.390625 -2.625 Z M 1.328125 -0.46875 C 1.453125 -0.46875 1.5625 -0.492188 1.65625 -0.546875 C 1.757812 -0.609375 1.832031 -0.695312 1.875 -0.8125 L 1.875 -1.078125 L 1.359375 -1.078125 C 1.054688 -1.078125 0.90625 -0.976562 0.90625 -0.78125 C 0.90625 -0.6875 0.941406 -0.609375 1.015625 -0.546875 C 1.085938 -0.492188 1.191406 -0.46875 1.328125 -0.46875 Z M 1.328125 -0.46875 "/></g></g></g><g fill="#000000" fill-opacity="1"><g transform="translate(33.717276, 37.423997)"><g><path d="M 0.34375 -3.5625 L 1.09375 -3.5625 L 1.09375 0 L 0.34375 0 Z M 0.34375 -3.5625 "/></g></g></g><g fill="#000000" fill-opacity="1"><g transform="translate(16.94625, 42.623997)"><g><path d="M 2 0.0625 C 1.65625 0.0625 1.34375 -0.0078125 1.0625 -0.15625 C 0.789062 -0.3125 0.578125 -0.519531 0.421875 -0.78125 C 0.265625 -1.050781 0.1875 -1.347656 0.1875 -1.671875 C 0.1875 -2.003906 0.265625 -2.300781 0.421875 -2.5625 C 0.578125 -2.832031 0.789062 -3.039062 1.0625 -3.1875 C 1.34375 -3.34375 1.660156 -3.421875 2.015625 -3.421875 C 2.304688 -3.421875 2.566406 -3.367188 2.796875 -3.265625 C 3.035156 -3.160156 3.234375 -3.015625 3.390625 -2.828125 L 2.890625 -2.359375 C 2.660156 -2.617188 2.378906 -2.75 2.046875 -2.75 C 1.835938 -2.75 1.648438 -2.703125 1.484375 -2.609375 C 1.328125 -2.523438 1.203125 -2.398438 1.109375 -2.234375 C 1.015625 -2.066406 0.96875 -1.878906 0.96875 -1.671875 C 0.96875 -1.460938 1.015625 -1.273438 1.109375 -1.109375 C 1.203125 -0.953125 1.328125 -0.828125 1.484375 -0.734375 C 1.648438 -0.648438 1.835938 -0.609375 2.046875 -0.609375 C 2.378906 -0.609375 2.660156 -0.738281 2.890625 -1 L 3.390625 -0.546875 C 3.234375 -0.347656 3.035156 -0.195312 2.796875 -0.09375 C 2.554688 0.0078125 2.289062 0.0625 2 0.0625 Z M 2 0.0625 "/></g></g></g><g fill="#000000" fill-opacity="1"><g transform="translate(20.464676, 42.623997)"><g><path d="M 2.53125 0 L 1.890625 -0.9375 L 1.171875 -0.9375 L 1.171875 0 L 0.390625 0 L 0.390625 -3.359375 L 1.859375 -3.359375 C 2.148438 -3.359375 2.40625 -3.304688 2.625 -3.203125 C 2.84375 -3.109375 3.007812 -2.96875 3.125 -2.78125 C 3.25 -2.601562 3.3125 -2.390625 3.3125 -2.140625 C 3.3125 -1.890625 3.25 -1.671875 3.125 -1.484375 C 3.007812 -1.304688 2.84375 -1.171875 2.625 -1.078125 L 3.375 0 Z M 2.515625 -2.140625 C 2.515625 -2.328125 2.453125 -2.46875 2.328125 -2.5625 C 2.210938 -2.664062 2.039062 -2.71875 1.8125 -2.71875 L 1.171875 -2.71875 L 1.171875 -1.546875 L 1.8125 -1.546875 C 2.039062 -1.546875 2.210938 -1.597656 2.328125 -1.703125 C 2.453125 -1.804688 2.515625 -1.953125 2.515625 -2.140625 Z M 2.515625 -2.140625 "/></g></g></g><g fill="#000000" fill-opacity="1"><g transform="translate(23.992704, 42.623997)"><g><path d="M 2.03125 0.0625 C 1.675781 0.0625 1.359375 -0.0078125 1.078125 -0.15625 C 0.796875 -0.3125 0.578125 -0.519531 0.421875 -0.78125 C 0.265625 -1.050781 0.1875 -1.347656 0.1875 -1.671875 C 0.1875 -2.003906 0.265625 -2.300781 0.421875 -2.5625 C 0.578125 -2.832031 0.796875 -3.039062 1.078125 -3.1875 C 1.359375 -3.34375 1.675781 -3.421875 2.03125 -3.421875 C 2.375 -3.421875 2.679688 -3.34375 2.953125 -3.1875 C 3.234375 -3.039062 3.453125 -2.832031 3.609375 -2.5625 C 3.773438 -2.300781 3.859375 -2.003906 3.859375 -1.671875 C 3.859375 -1.347656 3.773438 -1.050781 3.609375 -0.78125 C 3.453125 -0.519531 3.234375 -0.3125 2.953125 -0.15625 C 2.679688 -0.0078125 2.375 0.0625 2.03125 0.0625 Z M 2.03125 -0.609375 C 2.226562 -0.609375 2.40625 -0.648438 2.5625 -0.734375 C 2.71875 -0.828125 2.84375 -0.953125 2.9375 -1.109375 C 3.03125 -1.273438 3.078125 -1.460938 3.078125 -1.671875 C 3.078125 -1.878906 3.03125 -2.066406 2.9375 -2.234375 C 2.84375 -2.398438 2.71875 -2.523438 2.5625 -2.609375 C 2.40625 -2.703125 2.226562 -2.75 2.03125 -2.75 C 1.832031 -2.75 1.648438 -2.703125 1.484375 -2.609375 C 1.328125 -2.523438 1.203125 -2.398438 1.109375 -2.234375 C 1.015625 -2.066406 0.96875 -1.878906 0.96875 -1.671875 C 0.96875 -1.460938 1.015625 -1.273438 1.109375 -1.109375 C 1.203125 -0.953125 1.328125 -0.828125 1.484375 -0.734375 C 1.648438 -0.648438 1.832031 -0.609375 2.03125 -0.609375 Z M 2.03125 -0.609375 "/></g></g></g></svg>