<svg xmlns="http://www.w3.org/2000/svg" xmlns:xlink="http://www.w3.org/1999/xlink" width="60" zoomAndPan="magnify" viewBox="0 0 45 44.999999" height="60" preserveAspectRatio="xMidYMid meet" version="1.0"><defs><g/><clipPath id="49a19c2e94"><path d="M 9.085938 13 L 16 13 L 16 20 L 9.085938 20 Z M 9.085938 13 " clip-rule="nonzero"/></clipPath><clipPath id="c4c0ec39ab"><path d="M 9.085938 20 L 22 20 L 22 30.75 L 9.085938 30.75 Z M 9.085938 20 " clip-rule="nonzero"/></clipPath><clipPath id="b935ab9b54"><path d="M 21 20 L 36.085938 20 L 36.085938 30.75 L 21 30.75 Z M 21 20 " clip-rule="nonzero"/></clipPath><clipPath id="5e4aea3541"><path d="M 13 4.5 L 26 4.5 L 26 15 L 13 15 Z M 13 4.5 " clip-rule="nonzero"/></clipPath></defs><g fill="#000000" fill-opacity="1"><g transform="translate(15.750155, 37.857998)"><g><path d="M 3.453125 -2.109375 C 3.691406 -2.035156 3.875 -1.910156 4 -1.734375 C 4.132812 -1.566406 4.203125 -1.359375 4.203125 -1.109375 C 4.203125 -0.753906 4.0625 -0.476562 3.78125 -0.28125 C 3.507812 -0.09375 3.109375 0 2.578125 0 L 0.484375 0 L 0.484375 -4.0625 L 2.46875 -4.0625 C 2.957031 -4.0625 3.332031 -3.960938 3.59375 -3.765625 C 3.863281 -3.578125 4 -3.320312 4 -3 C 4 -2.800781 3.953125 -2.625 3.859375 -2.46875 C 3.765625 -2.320312 3.628906 -2.203125 3.453125 -2.109375 Z M 1.421875 -3.34375 L 1.421875 -2.390625 L 2.34375 -2.390625 C 2.582031 -2.390625 2.757812 -2.429688 2.875 -2.515625 C 3 -2.597656 3.0625 -2.71875 3.0625 -2.875 C 3.0625 -3.03125 3 -3.144531 2.875 -3.21875 C 2.757812 -3.300781 2.582031 -3.34375 2.34375 -3.34375 Z M 2.515625 -0.703125 C 2.753906 -0.703125 2.9375 -0.742188 3.0625 -0.828125 C 3.195312 -0.910156 3.265625 -1.035156 3.265625 -1.203125 C 3.265625 -1.535156 3.015625 -1.703125 2.515625 -1.703125 L 1.421875 -1.703125 L 1.421875 -0.703125 Z M 2.515625 -0.703125 "/></g></g></g><g fill="#000000" fill-opacity="1"><g transform="translate(20.187188, 37.857998)"><g><path d="M 0.484375 -4.0625 L 2.328125 -4.0625 C 2.765625 -4.0625 3.148438 -3.972656 3.484375 -3.796875 C 3.828125 -3.628906 4.09375 -3.394531 4.28125 -3.09375 C 4.46875 -2.789062 4.5625 -2.4375 4.5625 -2.03125 C 4.5625 -1.625 4.46875 -1.265625 4.28125 -0.953125 C 4.09375 -0.648438 3.828125 -0.414062 3.484375 -0.25 C 3.148438 -0.0820312 2.765625 0 2.328125 0 L 0.484375 0 Z M 2.28125 -0.765625 C 2.6875 -0.765625 3.007812 -0.878906 3.25 -1.109375 C 3.488281 -1.335938 3.609375 -1.644531 3.609375 -2.03125 C 3.609375 -2.414062 3.488281 -2.71875 3.25 -2.9375 C 3.007812 -3.164062 2.6875 -3.28125 2.28125 -3.28125 L 1.421875 -3.28125 L 1.421875 -0.765625 Z M 2.28125 -0.765625 "/></g></g></g><g fill="#000000" fill-opacity="1"><g transform="translate(24.978018, 37.857998)"><g><path d="M 3.0625 0 L 2.28125 -1.125 L 1.421875 -1.125 L 1.421875 0 L 0.484375 0 L 0.484375 -4.0625 L 2.234375 -4.0625 C 2.597656 -4.0625 2.910156 -4 3.171875 -3.875 C 3.441406 -3.757812 3.644531 -3.585938 3.78125 -3.359375 C 3.925781 -3.140625 4 -2.878906 4 -2.578125 C 4 -2.285156 3.925781 -2.03125 3.78125 -1.8125 C 3.632812 -1.59375 3.429688 -1.421875 3.171875 -1.296875 L 4.078125 0 Z M 3.046875 -2.578125 C 3.046875 -2.804688 2.972656 -2.984375 2.828125 -3.109375 C 2.679688 -3.234375 2.46875 -3.296875 2.1875 -3.296875 L 1.421875 -3.296875 L 1.421875 -1.875 L 2.1875 -1.875 C 2.46875 -1.875 2.679688 -1.9375 2.828125 -2.0625 C 2.972656 -2.1875 3.046875 -2.359375 3.046875 -2.578125 Z M 3.046875 -2.578125 "/></g></g></g><g fill="#000000" fill-opacity="1"><g transform="translate(7.24651, 43.657997)"><g><path d="M 3.625 -0.75 L 3.625 0 L 0.484375 0 L 0.484375 -4.0625 L 3.546875 -4.0625 L 3.546875 -3.296875 L 1.421875 -3.296875 L 1.421875 -2.421875 L 3.296875 -2.421875 L 3.296875 -1.6875 L 1.421875 -1.6875 L 1.421875 -0.75 Z M 3.625 -0.75 "/></g></g></g><g fill="#000000" fill-opacity="1"><g transform="translate(11.13834, 43.657997)"><g><path d="M 2.40625 0 L 1.71875 -0.953125 L 1.015625 0 L 0.015625 0 L 1.21875 -1.578125 L 0.0625 -3.125 L 1.078125 -3.125 L 1.734375 -2.203125 L 2.421875 -3.125 L 3.375 -3.125 L 2.21875 -1.59375 L 3.421875 0 Z M 2.40625 0 "/></g></g></g><g fill="#000000" fill-opacity="1"><g transform="translate(14.589362, 43.657997)"><g><path d="M 3.46875 -1.546875 C 3.46875 -1.535156 3.460938 -1.453125 3.453125 -1.296875 L 1.09375 -1.296875 C 1.132812 -1.109375 1.234375 -0.957031 1.390625 -0.84375 C 1.554688 -0.726562 1.753906 -0.671875 1.984375 -0.671875 C 2.148438 -0.671875 2.296875 -0.695312 2.421875 -0.75 C 2.546875 -0.800781 2.660156 -0.878906 2.765625 -0.984375 L 3.25 -0.453125 C 2.957031 -0.117188 2.53125 0.046875 1.96875 0.046875 C 1.613281 0.046875 1.300781 -0.0195312 1.03125 -0.15625 C 0.757812 -0.289062 0.550781 -0.476562 0.40625 -0.71875 C 0.257812 -0.96875 0.1875 -1.25 0.1875 -1.5625 C 0.1875 -1.863281 0.257812 -2.132812 0.40625 -2.375 C 0.550781 -2.625 0.75 -2.816406 1 -2.953125 C 1.25 -3.097656 1.53125 -3.171875 1.84375 -3.171875 C 2.15625 -3.171875 2.429688 -3.101562 2.671875 -2.96875 C 2.921875 -2.832031 3.113281 -2.640625 3.25 -2.390625 C 3.394531 -2.148438 3.46875 -1.867188 3.46875 -1.546875 Z M 1.859375 -2.484375 C 1.648438 -2.484375 1.472656 -2.425781 1.328125 -2.3125 C 1.191406 -2.195312 1.109375 -2.035156 1.078125 -1.828125 L 2.625 -1.828125 C 2.59375 -2.023438 2.503906 -2.179688 2.359375 -2.296875 C 2.222656 -2.421875 2.054688 -2.484375 1.859375 -2.484375 Z M 1.859375 -2.484375 "/></g></g></g><g fill="#000000" fill-opacity="1"><g transform="translate(18.249187, 43.657997)"><g><path d="M 1.921875 0.046875 C 1.585938 0.046875 1.285156 -0.0195312 1.015625 -0.15625 C 0.753906 -0.289062 0.550781 -0.476562 0.40625 -0.71875 C 0.257812 -0.96875 0.1875 -1.25 0.1875 -1.5625 C 0.1875 -1.863281 0.257812 -2.132812 0.40625 -2.375 C 0.550781 -2.625 0.753906 -2.816406 1.015625 -2.953125 C 1.285156 -3.097656 1.585938 -3.171875 1.921875 -3.171875 C 2.253906 -3.171875 2.539062 -3.097656 2.78125 -2.953125 C 3.03125 -2.816406 3.210938 -2.625 3.328125 -2.375 L 2.625 -2 C 2.457031 -2.28125 2.222656 -2.421875 1.921875 -2.421875 C 1.679688 -2.421875 1.484375 -2.34375 1.328125 -2.1875 C 1.171875 -2.03125 1.09375 -1.820312 1.09375 -1.5625 C 1.09375 -1.289062 1.171875 -1.078125 1.328125 -0.921875 C 1.484375 -0.773438 1.679688 -0.703125 1.921875 -0.703125 C 2.222656 -0.703125 2.457031 -0.84375 2.625 -1.125 L 3.328125 -0.734375 C 3.210938 -0.492188 3.03125 -0.300781 2.78125 -0.15625 C 2.539062 -0.0195312 2.253906 0.046875 1.921875 0.046875 Z M 1.921875 0.046875 "/></g></g></g><g fill="#000000" fill-opacity="1"><g transform="translate(21.677013, 43.657997)"><g><path d="M 3.5625 -3.125 L 3.5625 0 L 2.703125 0 L 2.703125 -0.375 C 2.578125 -0.238281 2.429688 -0.132812 2.265625 -0.0625 C 2.097656 0.0078125 1.921875 0.046875 1.734375 0.046875 C 1.328125 0.046875 1.003906 -0.0664062 0.765625 -0.296875 C 0.523438 -0.535156 0.40625 -0.890625 0.40625 -1.359375 L 0.40625 -3.125 L 1.296875 -3.125 L 1.296875 -1.484375 C 1.296875 -0.984375 1.507812 -0.734375 1.9375 -0.734375 C 2.15625 -0.734375 2.328125 -0.800781 2.453125 -0.9375 C 2.585938 -1.082031 2.65625 -1.296875 2.65625 -1.578125 L 2.65625 -3.125 Z M 3.5625 -3.125 "/></g></g></g><g fill="#000000" fill-opacity="1"><g transform="translate(25.661644, 43.657997)"><g><path d="M 2.421875 -0.15625 C 2.335938 -0.0820312 2.226562 -0.03125 2.09375 0 C 1.96875 0.03125 1.832031 0.046875 1.6875 0.046875 C 1.320312 0.046875 1.035156 -0.046875 0.828125 -0.234375 C 0.628906 -0.421875 0.53125 -0.703125 0.53125 -1.078125 L 0.53125 -2.359375 L 0.046875 -2.359375 L 0.046875 -3.046875 L 0.53125 -3.046875 L 0.53125 -3.8125 L 1.4375 -3.8125 L 1.4375 -3.046875 L 2.203125 -3.046875 L 2.203125 -2.359375 L 1.4375 -2.359375 L 1.4375 -1.078125 C 1.4375 -0.953125 1.46875 -0.851562 1.53125 -0.78125 C 1.601562 -0.707031 1.695312 -0.671875 1.8125 -0.671875 C 1.957031 -0.671875 2.082031 -0.707031 2.1875 -0.78125 Z M 2.421875 -0.15625 "/></g></g></g><g fill="#000000" fill-opacity="1"><g transform="translate(28.184659, 43.657997)"><g><path d="M 0.421875 -3.125 L 1.328125 -3.125 L 1.328125 0 L 0.421875 0 Z M 0.875 -3.546875 C 0.707031 -3.546875 0.570312 -3.59375 0.46875 -3.6875 C 0.363281 -3.789062 0.3125 -3.914062 0.3125 -4.0625 C 0.3125 -4.195312 0.363281 -4.3125 0.46875 -4.40625 C 0.570312 -4.507812 0.707031 -4.5625 0.875 -4.5625 C 1.039062 -4.5625 1.175781 -4.515625 1.28125 -4.421875 C 1.382812 -4.328125 1.4375 -4.210938 1.4375 -4.078125 C 1.4375 -3.921875 1.382812 -3.789062 1.28125 -3.6875 C 1.175781 -3.59375 1.039062 -3.546875 0.875 -3.546875 Z M 0.875 -3.546875 "/></g></g></g><g fill="#000000" fill-opacity="1"><g transform="translate(29.930473, 43.657997)"><g><path d="M 1.90625 0.046875 C 1.570312 0.046875 1.273438 -0.0195312 1.015625 -0.15625 C 0.753906 -0.289062 0.550781 -0.476562 0.40625 -0.71875 C 0.257812 -0.96875 0.1875 -1.25 0.1875 -1.5625 C 0.1875 -1.863281 0.257812 -2.132812 0.40625 -2.375 C 0.550781 -2.625 0.753906 -2.816406 1.015625 -2.953125 C 1.273438 -3.097656 1.570312 -3.171875 1.90625 -3.171875 C 2.226562 -3.171875 2.519531 -3.097656 2.78125 -2.953125 C 3.039062 -2.816406 3.242188 -2.625 3.390625 -2.375 C 3.535156 -2.132812 3.609375 -1.863281 3.609375 -1.5625 C 3.609375 -1.25 3.535156 -0.96875 3.390625 -0.71875 C 3.242188 -0.476562 3.039062 -0.289062 2.78125 -0.15625 C 2.519531 -0.0195312 2.226562 0.046875 1.90625 0.046875 Z M 1.90625 -0.703125 C 2.132812 -0.703125 2.320312 -0.78125 2.46875 -0.9375 C 2.625 -1.09375 2.703125 -1.300781 2.703125 -1.5625 C 2.703125 -1.820312 2.625 -2.03125 2.46875 -2.1875 C 2.320312 -2.34375 2.132812 -2.421875 1.90625 -2.421875 C 1.664062 -2.421875 1.46875 -2.34375 1.3125 -2.1875 C 1.164062 -2.03125 1.09375 -1.820312 1.09375 -1.5625 C 1.09375 -1.300781 1.164062 -1.09375 1.3125 -0.9375 C 1.46875 -0.78125 1.664062 -0.703125 1.90625 -0.703125 Z M 1.90625 -0.703125 "/></g></g></g><g fill="#000000" fill-opacity="1"><g transform="translate(33.729503, 43.657997)"><g><path d="M 2.3125 -3.171875 C 2.695312 -3.171875 3.007812 -3.050781 3.25 -2.8125 C 3.488281 -2.582031 3.609375 -2.238281 3.609375 -1.78125 L 3.609375 0 L 2.703125 0 L 2.703125 -1.640625 C 2.703125 -1.890625 2.644531 -2.070312 2.53125 -2.1875 C 2.425781 -2.3125 2.269531 -2.375 2.0625 -2.375 C 1.84375 -2.375 1.664062 -2.300781 1.53125 -2.15625 C 1.394531 -2.019531 1.328125 -1.816406 1.328125 -1.546875 L 1.328125 0 L 0.421875 0 L 0.421875 -3.125 L 1.28125 -3.125 L 1.28125 -2.75 C 1.394531 -2.882812 1.539062 -2.988281 1.71875 -3.0625 C 1.90625 -3.132812 2.101562 -3.171875 2.3125 -3.171875 Z M 2.3125 -3.171875 "/></g></g></g><g clip-path="url(#49a19c2e94)"><path fill="#000000" d="M 15.820312 16.523438 C 15.820312 18.203125 14.4375 19.558594 12.734375 19.558594 C 11.023438 19.558594 9.640625 18.203125 9.640625 16.523438 C 9.640625 14.851562 11.023438 13.488281 12.734375 13.488281 C 14.4375 13.488281 15.820312 14.851562 15.820312 16.523438 Z M 15.820312 16.523438 " fill-opacity="1" fill-rule="nonzero"/></g><path fill="#000000" d="M 29.351562 16.523438 C 29.351562 18.203125 30.734375 19.558594 32.4375 19.558594 C 34.148438 19.558594 35.535156 18.203125 35.535156 16.523438 C 35.535156 14.851562 34.148438 13.488281 32.4375 13.488281 C 30.734375 13.488281 29.351562 14.851562 29.351562 16.523438 Z M 29.351562 16.523438 " fill-opacity="1" fill-rule="nonzero"/><g clip-path="url(#c4c0ec39ab)"><path fill="#000000" d="M 20.878906 26.957031 C 20.808594 26.308594 21.058594 25.710938 21.488281 25.277344 C 18.875 24.785156 17.800781 23.535156 16.871094 22.402344 C 16.417969 21.84375 15.984375 21.316406 15.410156 20.945312 C 15.394531 20.933594 15.371094 20.933594 15.359375 20.921875 C 14.871094 20.523438 14.25 20.269531 13.570312 20.269531 L 11.898438 20.269531 C 10.351562 20.269531 9.085938 21.511719 9.085938 23.03125 L 9.085938 30.683594 L 16.378906 30.683594 L 16.378906 25.738281 C 17.445312 26.652344 18.949219 27.523438 21.265625 27.902344 C 21.070312 27.625 20.917969 27.316406 20.878906 26.957031 Z M 20.878906 26.957031 " fill-opacity="1" fill-rule="nonzero"/></g><g clip-path="url(#b935ab9b54)"><path fill="#000000" d="M 33.277344 20.269531 L 31.605469 20.269531 C 30.925781 20.269531 30.304688 20.523438 29.816406 20.921875 C 29.800781 20.933594 29.777344 20.933594 29.765625 20.945312 C 29.191406 21.316406 28.757812 21.84375 28.304688 22.402344 C 27.28125 23.644531 26.121094 25.0625 22.875 25.414062 C 22.140625 25.5 21.613281 26.148438 21.695312 26.867188 C 21.765625 27.542969 22.347656 28.039062 23.023438 28.039062 C 23.070312 28.039062 23.121094 28.035156 23.175781 28.03125 C 25.921875 27.730469 27.625 26.773438 28.796875 25.753906 L 28.796875 30.683594 L 36.085938 30.683594 L 36.085938 23.03125 C 36.085938 21.511719 34.820312 20.269531 33.277344 20.269531 Z M 33.277344 20.269531 " fill-opacity="1" fill-rule="nonzero"/></g><g clip-path="url(#5e4aea3541)"><path fill="#000000" d="M 20.621094 11.503906 L 20.621094 8.46875 C 20.621094 7.683594 21.242188 7.046875 22.003906 7.046875 L 25.03125 7.046875 L 25.03125 6.324219 C 25.03125 5.351562 24.265625 4.566406 23.320312 4.566406 L 15.386719 4.566406 C 14.441406 4.566406 13.675781 5.351562 13.675781 6.324219 L 13.675781 10.082031 C 13.675781 11.050781 14.441406 11.839844 15.386719 11.839844 L 16.695312 11.839844 C 16.695312 12.53125 16.695312 13.222656 16.695312 13.914062 C 16.695312 14.03125 16.855469 14.109375 16.9375 14.015625 C 17.5625 13.289062 18.1875 12.566406 18.808594 11.839844 L 20.664062 11.839844 C 20.636719 11.730469 20.621094 11.621094 20.621094 11.503906 Z M 20.621094 11.503906 " fill-opacity="1" fill-rule="nonzero"/></g><path fill="#000000" d="M 21.40625 8.96875 L 21.40625 12.359375 C 21.40625 13.066406 21.964844 13.640625 22.65625 13.640625 L 25.941406 13.640625 C 26.398438 14.167969 26.851562 14.699219 27.308594 15.226562 C 27.367188 15.296875 27.484375 15.238281 27.484375 15.15625 C 27.484375 14.648438 27.484375 14.144531 27.484375 13.640625 L 29.542969 13.640625 C 30.230469 13.640625 30.789062 13.066406 30.789062 12.359375 L 30.789062 8.96875 C 30.789062 8.261719 30.230469 7.6875 29.542969 7.6875 L 22.65625 7.6875 C 21.964844 7.6875 21.40625 8.261719 21.40625 8.96875 Z M 21.40625 8.96875 " fill-opacity="1" fill-rule="nonzero"/></svg>