<svg xmlns="http://www.w3.org/2000/svg" xmlns:xlink="http://www.w3.org/1999/xlink" width="60" zoomAndPan="magnify" viewBox="0 0 45 44.999999" height="60" preserveAspectRatio="xMidYMid meet" version="1.0"><defs><g/><clipPath id="3cc07b2b03"><path d="M 13.785156 11 L 31.035156 11 L 31.035156 30.601562 L 13.785156 30.601562 Z M 13.785156 11 " clip-rule="nonzero"/></clipPath><clipPath id="500611e9e4"><path d="M 24 2.851562 L 27 2.851562 L 27 5 L 24 5 Z M 24 2.851562 " clip-rule="nonzero"/></clipPath></defs><g clip-path="url(#3cc07b2b03)"><path fill="#000000" d="M 17.875 34.070312 C 17.804688 34.945312 18.449219 35.714844 19.316406 35.785156 C 20.1875 35.855469 20.945312 35.203125 21.019531 34.328125 L 21.75 25.257812 C 22.019531 25.265625 22.246094 25.269531 22.410156 25.269531 C 22.578125 25.269531 22.804688 25.265625 23.074219 25.257812 L 23.804688 34.328125 C 23.875 35.203125 24.636719 35.855469 25.503906 35.785156 C 26.375 35.714844 27.019531 34.945312 26.949219 34.070312 L 26.222656 25.054688 C 27.925781 24.867188 29.558594 24.519531 29.785156 23.894531 C 29.96875 23.382812 30.160156 22.125 30.285156 20.613281 C 30.683594 20.492188 30.984375 20.128906 31.007812 19.6875 C 31.035156 19.242188 30.777344 18.851562 30.398438 18.683594 C 30.449219 17.164062 30.421875 15.601562 30.25 14.394531 C 30.25 13.960938 29.882812 13.609375 29.433594 13.609375 C 28.980469 13.609375 28.613281 13.960938 28.613281 14.394531 C 28.613281 14.546875 28.660156 14.6875 28.738281 14.808594 C 28.398438 14.878906 28.039062 14.945312 27.667969 15.007812 C 27.621094 14.855469 27.570312 14.699219 27.515625 14.542969 C 26.953125 12.96875 26.179688 12.070312 25.207031 11.875 C 25.105469 11.835938 24.992188 11.8125 24.875 11.8125 L 24.625 11.8125 C 24.054688 12.378906 23.273438 12.726562 22.410156 12.726562 C 21.550781 12.726562 20.769531 12.378906 20.199219 11.8125 L 19.949219 11.8125 C 19.832031 11.8125 19.71875 11.835938 19.613281 11.875 C 18.644531 12.070312 17.871094 12.96875 17.308594 14.542969 C 17.253906 14.699219 17.203125 14.855469 17.15625 15.007812 C 16.785156 14.945312 16.421875 14.878906 16.085938 14.808594 C 16.164062 14.6875 16.210938 14.546875 16.210938 14.394531 C 16.210938 13.960938 15.84375 13.609375 15.390625 13.609375 C 14.9375 13.609375 14.574219 13.960938 14.574219 14.394531 C 14.402344 15.601562 14.371094 17.164062 14.425781 18.683594 C 14.046875 18.851562 13.789062 19.242188 13.816406 19.6875 C 13.839844 20.128906 14.140625 20.492188 14.539062 20.613281 C 14.664062 22.125 14.855469 23.382812 15.039062 23.894531 C 15.261719 24.519531 16.898438 24.867188 18.601562 25.054688 Z M 29.410156 13.925781 C 29.738281 13.925781 30.003906 14.164062 30.039062 14.46875 C 29.949219 14.5 29.855469 14.527344 29.757812 14.558594 C 29.746094 14.289062 29.515625 14.074219 29.230469 14.074219 C 29.09375 14.074219 28.96875 14.125 28.875 14.210938 C 28.988281 14.039062 29.183594 13.925781 29.410156 13.925781 Z M 15.414062 13.925781 C 15.640625 13.925781 15.835938 14.039062 15.949219 14.210938 C 15.855469 14.125 15.730469 14.074219 15.59375 14.074219 C 15.308594 14.074219 15.078125 14.289062 15.066406 14.558594 C 14.96875 14.527344 14.875 14.5 14.785156 14.46875 C 14.820312 14.164062 15.085938 13.925781 15.414062 13.925781 Z M 15.398438 23.761719 C 15.019531 22.71875 14.574219 17.953125 14.894531 14.910156 C 16.863281 15.503906 20.46875 15.863281 22.410156 15.863281 C 24.355469 15.863281 27.960938 15.503906 29.929688 14.910156 C 30.25 17.953125 29.800781 22.71875 29.425781 23.761719 C 29.214844 24.347656 25.871094 24.882812 22.410156 24.882812 C 18.953125 24.882812 15.609375 24.347656 15.398438 23.761719 Z M 15.398438 23.761719 " fill-opacity="1" fill-rule="nonzero"/></g><path fill="#000000" d="M 25.28125 9.535156 C 25.28125 9.917969 25.207031 10.289062 25.0625 10.644531 C 24.917969 11 24.710938 11.3125 24.441406 11.582031 C 24.171875 11.855469 23.863281 12.0625 23.511719 12.210938 C 23.160156 12.359375 22.792969 12.429688 22.410156 12.429688 C 22.03125 12.429688 21.664062 12.359375 21.3125 12.210938 C 20.960938 12.0625 20.652344 11.855469 20.382812 11.582031 C 20.113281 11.3125 19.90625 11 19.761719 10.644531 C 19.613281 10.289062 19.542969 9.917969 19.542969 9.535156 C 19.542969 9.152344 19.613281 8.78125 19.761719 8.425781 C 19.90625 8.074219 20.113281 7.757812 20.382812 7.488281 C 20.652344 7.214844 20.960938 7.007812 21.3125 6.859375 C 21.664062 6.714844 22.03125 6.640625 22.410156 6.640625 C 22.792969 6.640625 23.160156 6.714844 23.511719 6.859375 C 23.863281 7.007812 24.171875 7.214844 24.441406 7.488281 C 24.710938 7.757812 24.917969 8.074219 25.0625 8.425781 C 25.207031 8.78125 25.28125 9.152344 25.28125 9.535156 Z M 25.28125 9.535156 " fill-opacity="1" fill-rule="nonzero"/><path fill="#000000" d="M 28.683594 7.855469 L 28.472656 7.480469 L 28.210938 7.632812 C 28.179688 7.59375 28.144531 7.558594 28.105469 7.527344 L 28.257812 7.265625 L 27.886719 7.046875 L 27.738281 7.308594 C 27.691406 7.292969 27.640625 7.28125 27.59375 7.269531 L 27.59375 6.96875 L 27.167969 6.96875 L 27.167969 7.269531 C 27.117188 7.28125 27.070312 7.292969 27.023438 7.308594 L 26.871094 7.046875 L 26.503906 7.265625 L 26.652344 7.527344 C 26.617188 7.558594 26.582031 7.59375 26.546875 7.632812 L 26.289062 7.480469 L 26.074219 7.855469 L 26.332031 8.003906 C 26.316406 8.050781 26.304688 8.101562 26.292969 8.152344 L 25.996094 8.152344 L 25.996094 8.582031 L 26.292969 8.582031 C 26.304688 8.632812 26.316406 8.679688 26.332031 8.726562 L 26.074219 8.878906 L 26.289062 9.25 L 26.546875 9.097656 C 26.582031 9.136719 26.617188 9.171875 26.652344 9.207031 L 26.503906 9.46875 L 26.871094 9.683594 L 27.023438 9.421875 C 27.070312 9.4375 27.117188 9.449219 27.167969 9.460938 L 27.167969 9.761719 L 27.59375 9.761719 L 27.59375 9.460938 C 27.640625 9.449219 27.691406 9.4375 27.738281 9.421875 L 27.886719 9.683594 L 28.257812 9.46875 L 28.105469 9.207031 C 28.144531 9.171875 28.179688 9.136719 28.210938 9.097656 L 28.472656 9.25 L 28.683594 8.878906 L 28.425781 8.726562 C 28.441406 8.679688 28.453125 8.632812 28.464844 8.582031 L 28.765625 8.582031 L 28.765625 8.152344 L 28.464844 8.152344 C 28.453125 8.101562 28.441406 8.050781 28.425781 8.003906 Z M 27.378906 9.195312 C 26.925781 9.195312 26.558594 8.824219 26.558594 8.367188 C 26.558594 7.910156 26.925781 7.539062 27.378906 7.539062 C 27.832031 7.539062 28.199219 7.910156 28.199219 8.367188 C 28.199219 8.824219 27.832031 9.195312 27.378906 9.195312 Z M 27.378906 9.195312 " fill-opacity="1" fill-rule="nonzero"/><path fill="#000000" d="M 27.628906 8.367188 C 27.628906 8.4375 27.605469 8.496094 27.558594 8.542969 C 27.507812 8.59375 27.449219 8.617188 27.378906 8.617188 C 27.308594 8.617188 27.25 8.59375 27.203125 8.542969 C 27.152344 8.496094 27.128906 8.4375 27.128906 8.367188 C 27.128906 8.296875 27.152344 8.238281 27.203125 8.1875 C 27.25 8.136719 27.308594 8.113281 27.378906 8.113281 C 27.449219 8.113281 27.507812 8.136719 27.558594 8.1875 C 27.605469 8.238281 27.628906 8.296875 27.628906 8.367188 Z M 27.628906 8.367188 " fill-opacity="1" fill-rule="nonzero"/><g clip-path="url(#500611e9e4)"><path fill="#000000" d="M 25.695312 4.773438 L 25.695312 4.566406 C 25.726562 4.558594 25.761719 4.550781 25.792969 4.539062 L 25.894531 4.71875 L 26.152344 4.570312 L 26.046875 4.390625 C 26.074219 4.367188 26.097656 4.34375 26.121094 4.316406 L 26.300781 4.421875 L 26.445312 4.164062 L 26.265625 4.0625 C 26.277344 4.027344 26.289062 3.996094 26.292969 3.960938 L 26.5 3.960938 L 26.5 3.664062 L 26.292969 3.664062 C 26.289062 3.628906 26.277344 3.597656 26.265625 3.5625 L 26.445312 3.460938 L 26.300781 3.203125 L 26.121094 3.308594 C 26.097656 3.28125 26.074219 3.257812 26.046875 3.234375 L 26.152344 3.054688 L 25.894531 2.90625 L 25.792969 3.085938 C 25.761719 3.074219 25.726562 3.066406 25.695312 3.058594 L 25.695312 2.851562 L 25.398438 2.851562 L 25.398438 3.058594 C 25.367188 3.066406 25.332031 3.074219 25.300781 3.085938 L 25.195312 2.90625 L 24.941406 3.054688 L 25.046875 3.234375 C 25.019531 3.257812 24.996094 3.28125 24.972656 3.308594 L 24.792969 3.203125 L 24.648438 3.460938 L 24.824219 3.5625 C 24.816406 3.597656 24.804688 3.628906 24.796875 3.664062 L 24.59375 3.664062 L 24.59375 3.960938 L 24.796875 3.960938 C 24.804688 3.996094 24.816406 4.027344 24.824219 4.0625 L 24.648438 4.164062 L 24.792969 4.421875 L 24.972656 4.316406 C 24.996094 4.34375 25.019531 4.367188 25.046875 4.390625 L 24.941406 4.570312 L 25.195312 4.71875 L 25.300781 4.539062 C 25.332031 4.550781 25.367188 4.558594 25.398438 4.566406 L 25.398438 4.773438 Z M 24.980469 3.8125 C 24.980469 3.496094 25.234375 3.242188 25.546875 3.242188 C 25.859375 3.242188 26.113281 3.496094 26.113281 3.8125 C 26.113281 4.128906 25.859375 4.382812 25.546875 4.382812 C 25.234375 4.382812 24.980469 4.128906 24.980469 3.8125 Z M 24.980469 3.8125 " fill-opacity="1" fill-rule="nonzero"/></g><path fill="#000000" d="M 25.71875 3.8125 C 25.71875 3.929688 25.660156 3.988281 25.546875 3.988281 C 25.429688 3.988281 25.375 3.929688 25.375 3.8125 C 25.375 3.695312 25.429688 3.636719 25.546875 3.636719 C 25.660156 3.636719 25.71875 3.695312 25.71875 3.8125 Z M 25.71875 3.8125 " fill-opacity="1" fill-rule="nonzero"/><path fill="#000000" d="M 24.847656 6.597656 C 25.039062 6.597656 25.195312 6.441406 25.195312 6.25 C 25.195312 6.054688 25.039062 5.898438 24.847656 5.898438 C 24.773438 5.898438 24.707031 5.917969 24.652344 5.957031 L 23.976562 5.269531 C 24.015625 5.214844 24.039062 5.144531 24.039062 5.070312 C 24.039062 4.878906 23.882812 4.71875 23.691406 4.71875 C 23.519531 4.71875 23.378906 4.84375 23.347656 5.007812 L 22.875 5.007812 C 22.84375 4.84375 22.703125 4.71875 22.53125 4.71875 C 22.457031 4.71875 22.382812 4.746094 22.328125 4.789062 L 21.667969 4.175781 C 21.703125 4.121094 21.722656 4.058594 21.722656 3.988281 C 21.722656 3.796875 21.566406 3.636719 21.375 3.636719 C 21.183594 3.636719 21.027344 3.796875 21.027344 3.988281 C 21.027344 4.058594 21.046875 4.121094 21.082031 4.175781 L 20.425781 4.789062 C 20.367188 4.746094 20.296875 4.71875 20.21875 4.71875 C 20.027344 4.71875 19.871094 4.878906 19.871094 5.070312 C 19.871094 5.265625 20.027344 5.421875 20.21875 5.421875 C 20.410156 5.421875 20.566406 5.265625 20.566406 5.070312 C 20.566406 5.003906 20.546875 4.9375 20.511719 4.882812 L 21.167969 4.269531 C 21.226562 4.316406 21.296875 4.339844 21.375 4.339844 C 21.453125 4.339844 21.523438 4.316406 21.582031 4.269531 L 22.238281 4.882812 C 22.207031 4.9375 22.183594 5.003906 22.183594 5.070312 C 22.183594 5.265625 22.339844 5.421875 22.535156 5.421875 C 22.703125 5.421875 22.84375 5.296875 22.875 5.136719 L 23.347656 5.136719 C 23.378906 5.296875 23.519531 5.421875 23.691406 5.421875 C 23.761719 5.421875 23.832031 5.398438 23.886719 5.363281 L 24.5625 6.050781 C 24.523438 6.105469 24.5 6.175781 24.5 6.25 C 24.5 6.441406 24.65625 6.597656 24.847656 6.597656 Z M 24.625 6.25 C 24.625 6.125 24.726562 6.027344 24.847656 6.027344 C 24.96875 6.027344 25.066406 6.125 25.066406 6.25 C 25.066406 6.371094 24.96875 6.472656 24.847656 6.472656 C 24.726562 6.472656 24.625 6.371094 24.625 6.25 Z M 23.46875 5.070312 C 23.46875 4.949219 23.566406 4.847656 23.691406 4.847656 C 23.8125 4.847656 23.910156 4.949219 23.910156 5.070312 C 23.910156 5.195312 23.8125 5.292969 23.691406 5.292969 C 23.570312 5.292969 23.46875 5.195312 23.46875 5.070312 Z M 22.753906 5.070312 C 22.753906 5.195312 22.65625 5.292969 22.53125 5.292969 C 22.410156 5.292969 22.3125 5.195312 22.3125 5.070312 C 22.3125 4.949219 22.410156 4.847656 22.53125 4.847656 C 22.65625 4.847656 22.753906 4.949219 22.753906 5.070312 Z M 21.375 4.210938 C 21.253906 4.210938 21.15625 4.113281 21.15625 3.988281 C 21.15625 3.867188 21.253906 3.765625 21.375 3.765625 C 21.496094 3.765625 21.597656 3.867188 21.597656 3.988281 C 21.597656 4.113281 21.496094 4.210938 21.375 4.210938 Z M 20.441406 5.070312 C 20.441406 5.195312 20.339844 5.292969 20.21875 5.292969 C 20.097656 5.292969 20 5.195312 20 5.070312 C 20 4.949219 20.097656 4.847656 20.21875 4.847656 C 20.339844 4.847656 20.441406 4.949219 20.441406 5.070312 Z M 20.441406 5.070312 " fill-opacity="1" fill-rule="nonzero"/><path fill="#000000" d="M 30 10.574219 L 29.621094 10.574219 C 29.589844 10.433594 29.46875 10.332031 29.324219 10.332031 C 29.179688 10.332031 29.058594 10.433594 29.027344 10.574219 L 28.648438 10.574219 C 28.617188 10.433594 28.496094 10.332031 28.351562 10.332031 C 28.207031 10.332031 28.085938 10.433594 28.054688 10.574219 L 27.675781 10.574219 C 27.644531 10.433594 27.523438 10.332031 27.378906 10.332031 C 27.234375 10.332031 27.113281 10.433594 27.082031 10.574219 L 26.703125 10.574219 C 26.671875 10.433594 26.550781 10.332031 26.40625 10.332031 C 26.238281 10.332031 26.105469 10.46875 26.105469 10.636719 C 26.105469 10.804688 26.238281 10.941406 26.40625 10.941406 C 26.550781 10.941406 26.671875 10.839844 26.703125 10.703125 L 27.082031 10.703125 C 27.113281 10.839844 27.234375 10.941406 27.378906 10.941406 C 27.523438 10.941406 27.644531 10.839844 27.675781 10.703125 L 28.054688 10.703125 C 28.085938 10.839844 28.207031 10.941406 28.351562 10.941406 C 28.496094 10.941406 28.617188 10.839844 28.648438 10.703125 L 29.027344 10.703125 C 29.058594 10.839844 29.179688 10.941406 29.324219 10.941406 C 29.46875 10.941406 29.589844 10.839844 29.621094 10.703125 L 30 10.703125 C 30.03125 10.839844 30.152344 10.941406 30.296875 10.941406 C 30.464844 10.941406 30.601562 10.804688 30.601562 10.636719 C 30.601562 10.46875 30.464844 10.332031 30.296875 10.332031 C 30.152344 10.332031 30.03125 10.433594 30 10.574219 Z M 30.296875 10.8125 C 30.199219 10.8125 30.121094 10.734375 30.121094 10.636719 C 30.121094 10.539062 30.199219 10.460938 30.296875 10.460938 C 30.394531 10.460938 30.472656 10.539062 30.472656 10.636719 C 30.472656 10.734375 30.394531 10.8125 30.296875 10.8125 Z M 29.5 10.636719 C 29.5 10.734375 29.421875 10.8125 29.324219 10.8125 C 29.226562 10.8125 29.148438 10.734375 29.148438 10.636719 C 29.148438 10.539062 29.226562 10.460938 29.324219 10.460938 C 29.421875 10.460938 29.5 10.539062 29.5 10.636719 Z M 28.527344 10.636719 C 28.527344 10.734375 28.449219 10.8125 28.351562 10.8125 C 28.253906 10.8125 28.175781 10.734375 28.175781 10.636719 C 28.175781 10.539062 28.253906 10.460938 28.351562 10.460938 C 28.449219 10.460938 28.527344 10.539062 28.527344 10.636719 Z M 27.554688 10.636719 C 27.554688 10.734375 27.476562 10.8125 27.378906 10.8125 C 27.28125 10.8125 27.203125 10.734375 27.203125 10.636719 C 27.203125 10.539062 27.28125 10.460938 27.378906 10.460938 C 27.476562 10.460938 27.554688 10.539062 27.554688 10.636719 Z M 26.582031 10.636719 C 26.582031 10.734375 26.503906 10.8125 26.40625 10.8125 C 26.308594 10.8125 26.230469 10.734375 26.230469 10.636719 C 26.230469 10.539062 26.308594 10.460938 26.40625 10.460938 C 26.503906 10.460938 26.582031 10.539062 26.582031 10.636719 Z M 26.582031 10.636719 " fill-opacity="1" fill-rule="nonzero"/><path fill="#000000" d="M 16.394531 10.585938 L 15.972656 10.726562 L 15.820312 10.273438 L 15.484375 10.386719 L 15.632812 10.839844 L 15.210938 10.984375 L 15.320312 11.316406 L 15.742188 11.175781 L 15.890625 11.625 L 16.230469 11.511719 L 16.082031 11.0625 L 16.503906 10.921875 Z M 16.394531 10.585938 " fill-opacity="1" fill-rule="nonzero"/><path fill="#000000" d="M 27.65625 5.050781 L 27.230469 5.191406 L 27.339844 5.527344 L 27.765625 5.382812 L 27.914062 5.832031 L 28.25 5.71875 L 28.101562 5.269531 L 28.527344 5.128906 L 28.414062 4.792969 L 27.992188 4.9375 L 27.84375 4.480469 L 27.503906 4.59375 Z M 27.65625 5.050781 " fill-opacity="1" fill-rule="nonzero"/><path fill="#000000" d="M 17.894531 10.929688 L 18.070312 10.488281 L 18.484375 10.65625 L 18.613281 10.328125 L 18.199219 10.164062 L 18.375 9.71875 L 18.042969 9.585938 L 17.867188 10.03125 L 17.453125 9.863281 L 17.324219 10.191406 L 17.738281 10.355469 L 17.566406 10.796875 Z M 17.894531 10.929688 " fill-opacity="1" fill-rule="nonzero"/><path fill="#000000" d="M 16.332031 6.714844 L 16.589844 6.714844 L 16.589844 8.109375 L 16.332031 8.109375 Z M 16.332031 6.714844 " fill-opacity="1" fill-rule="nonzero"/><path fill="#000000" d="M 16.820312 5.792969 L 17.074219 5.792969 L 17.074219 8.109375 L 16.820312 8.109375 Z M 16.820312 5.792969 " fill-opacity="1" fill-rule="nonzero"/><path fill="#000000" d="M 17.304688 6.199219 L 17.558594 6.199219 L 17.558594 8.109375 L 17.304688 8.109375 Z M 17.304688 6.199219 " fill-opacity="1" fill-rule="nonzero"/><path fill="#000000" d="M 17.789062 5.792969 L 18.042969 5.792969 L 18.042969 8.109375 L 17.789062 8.109375 Z M 17.789062 5.792969 " fill-opacity="1" fill-rule="nonzero"/><path fill="#000000" d="M 18.273438 6.5 L 18.527344 6.5 L 18.527344 8.109375 L 18.273438 8.109375 Z M 18.273438 6.5 " fill-opacity="1" fill-rule="nonzero"/><path fill="#000000" d="M 16.085938 8.28125 L 18.777344 8.28125 L 18.777344 8.367188 L 16.085938 8.367188 Z M 16.085938 8.28125 " fill-opacity="1" fill-rule="nonzero"/><g fill="#000000" fill-opacity="1"><g transform="translate(15.695259, 37.574237)"><g><path d="M 3.21875 -2.09375 L 4.078125 -2.09375 L 4.078125 -0.453125 C 3.859375 -0.285156 3.601562 -0.15625 3.3125 -0.0625 C 3.019531 0.0195312 2.726562 0.0625 2.4375 0.0625 C 2.019531 0.0625 1.640625 -0.0234375 1.296875 -0.203125 C 0.960938 -0.378906 0.695312 -0.625 0.5 -0.9375 C 0.3125 -1.257812 0.21875 -1.625 0.21875 -2.03125 C 0.21875 -2.425781 0.3125 -2.785156 0.5 -3.109375 C 0.695312 -3.429688 0.960938 -3.679688 1.296875 -3.859375 C 1.640625 -4.035156 2.023438 -4.125 2.453125 -4.125 C 2.804688 -4.125 3.128906 -4.0625 3.421875 -3.9375 C 3.710938 -3.820312 3.957031 -3.648438 4.15625 -3.421875 L 3.546875 -2.875 C 3.265625 -3.175781 2.914062 -3.328125 2.5 -3.328125 C 2.238281 -3.328125 2.007812 -3.269531 1.8125 -3.15625 C 1.613281 -3.050781 1.457031 -2.898438 1.34375 -2.703125 C 1.226562 -2.503906 1.171875 -2.28125 1.171875 -2.03125 C 1.171875 -1.78125 1.226562 -1.554688 1.34375 -1.359375 C 1.457031 -1.160156 1.613281 -1.003906 1.8125 -0.890625 C 2.007812 -0.785156 2.238281 -0.734375 2.5 -0.734375 C 2.769531 -0.734375 3.007812 -0.789062 3.21875 -0.90625 Z M 3.21875 -2.09375 "/></g></g></g><g fill="#000000" fill-opacity="1"><g transform="translate(20.167088, 37.574237)"><g><path d="M 1.328125 -3.296875 L 0.015625 -3.296875 L 0.015625 -4.0625 L 3.5625 -4.0625 L 3.5625 -3.296875 L 2.265625 -3.296875 L 2.265625 0 L 1.328125 0 Z M 1.328125 -3.296875 "/></g></g></g><g fill="#000000" fill-opacity="1"><g transform="translate(23.75151, 37.574237)"><g><path d="M 4.171875 0 L 4.171875 -2.4375 L 2.96875 -0.421875 L 2.546875 -0.421875 L 1.359375 -2.375 L 1.359375 0 L 0.484375 0 L 0.484375 -4.0625 L 1.265625 -4.0625 L 2.78125 -1.53125 L 4.265625 -4.0625 L 5.046875 -4.0625 L 5.0625 0 Z M 4.171875 0 "/></g></g></g><g fill="#000000" fill-opacity="1"><g transform="translate(3.29474, 43.857569)"><g><path d="M 3.15625 -0.875 L 1.265625 -0.875 L 0.90625 0 L -0.046875 0 L 1.75 -4.0625 L 2.6875 -4.0625 L 4.5 0 L 3.515625 0 Z M 2.859375 -1.578125 L 2.21875 -3.140625 L 1.578125 -1.578125 Z M 2.859375 -1.578125 "/></g></g></g><g fill="#000000" fill-opacity="1"><g transform="translate(7.73757, 43.857569)"><g><path d="M 1.28125 -2.703125 C 1.382812 -2.859375 1.53125 -2.972656 1.71875 -3.046875 C 1.90625 -3.128906 2.117188 -3.171875 2.359375 -3.171875 L 2.359375 -2.328125 C 2.253906 -2.335938 2.1875 -2.34375 2.15625 -2.34375 C 1.894531 -2.34375 1.691406 -2.269531 1.546875 -2.125 C 1.398438 -1.976562 1.328125 -1.757812 1.328125 -1.46875 L 1.328125 0 L 0.421875 0 L 0.421875 -3.125 L 1.28125 -3.125 Z M 1.28125 -2.703125 "/></g></g></g><g fill="#000000" fill-opacity="1"><g transform="translate(10.23739, 43.857569)"><g><path d="M 1.921875 0.046875 C 1.585938 0.046875 1.285156 -0.0195312 1.015625 -0.15625 C 0.753906 -0.289062 0.550781 -0.476562 0.40625 -0.71875 C 0.257812 -0.96875 0.1875 -1.25 0.1875 -1.5625 C 0.1875 -1.863281 0.257812 -2.132812 0.40625 -2.375 C 0.550781 -2.625 0.753906 -2.816406 1.015625 -2.953125 C 1.285156 -3.097656 1.585938 -3.171875 1.921875 -3.171875 C 2.253906 -3.171875 2.539062 -3.097656 2.78125 -2.953125 C 3.03125 -2.816406 3.210938 -2.625 3.328125 -2.375 L 2.625 -2 C 2.457031 -2.28125 2.222656 -2.421875 1.921875 -2.421875 C 1.679688 -2.421875 1.484375 -2.34375 1.328125 -2.1875 C 1.171875 -2.03125 1.09375 -1.820312 1.09375 -1.5625 C 1.09375 -1.289062 1.171875 -1.078125 1.328125 -0.921875 C 1.484375 -0.773438 1.679688 -0.703125 1.921875 -0.703125 C 2.222656 -0.703125 2.457031 -0.84375 2.625 -1.125 L 3.328125 -0.734375 C 3.210938 -0.492188 3.03125 -0.300781 2.78125 -0.15625 C 2.539062 -0.0195312 2.253906 0.046875 1.921875 0.046875 Z M 1.921875 0.046875 "/></g></g></g><g fill="#000000" fill-opacity="1"><g transform="translate(13.665217, 43.857569)"><g><path d="M 2.3125 -3.171875 C 2.695312 -3.171875 3.007812 -3.050781 3.25 -2.8125 C 3.488281 -2.582031 3.609375 -2.238281 3.609375 -1.78125 L 3.609375 0 L 2.703125 0 L 2.703125 -1.640625 C 2.703125 -1.890625 2.644531 -2.070312 2.53125 -2.1875 C 2.425781 -2.3125 2.269531 -2.375 2.0625 -2.375 C 1.84375 -2.375 1.664062 -2.300781 1.53125 -2.15625 C 1.394531 -2.019531 1.328125 -1.816406 1.328125 -1.546875 L 1.328125 0 L 0.421875 0 L 0.421875 -4.296875 L 1.328125 -4.296875 L 1.328125 -2.796875 C 1.441406 -2.910156 1.582031 -3 1.75 -3.0625 C 1.925781 -3.132812 2.113281 -3.171875 2.3125 -3.171875 Z M 2.3125 -3.171875 "/></g></g></g><g fill="#000000" fill-opacity="1"><g transform="translate(17.673042, 43.857569)"><g><path d="M 0.421875 -3.125 L 1.328125 -3.125 L 1.328125 0 L 0.421875 0 Z M 0.875 -3.546875 C 0.707031 -3.546875 0.570312 -3.59375 0.46875 -3.6875 C 0.363281 -3.789062 0.3125 -3.914062 0.3125 -4.0625 C 0.3125 -4.195312 0.363281 -4.3125 0.46875 -4.40625 C 0.570312 -4.507812 0.707031 -4.5625 0.875 -4.5625 C 1.039062 -4.5625 1.175781 -4.515625 1.28125 -4.421875 C 1.382812 -4.328125 1.4375 -4.210938 1.4375 -4.078125 C 1.4375 -3.921875 1.382812 -3.789062 1.28125 -3.6875 C 1.175781 -3.59375 1.039062 -3.546875 0.875 -3.546875 Z M 0.875 -3.546875 "/></g></g></g><g fill="#000000" fill-opacity="1"><g transform="translate(19.418856, 43.857569)"><g><path d="M 2.421875 -0.15625 C 2.335938 -0.0820312 2.226562 -0.03125 2.09375 0 C 1.96875 0.03125 1.832031 0.046875 1.6875 0.046875 C 1.320312 0.046875 1.035156 -0.046875 0.828125 -0.234375 C 0.628906 -0.421875 0.53125 -0.703125 0.53125 -1.078125 L 0.53125 -2.359375 L 0.046875 -2.359375 L 0.046875 -3.046875 L 0.53125 -3.046875 L 0.53125 -3.8125 L 1.4375 -3.8125 L 1.4375 -3.046875 L 2.203125 -3.046875 L 2.203125 -2.359375 L 1.4375 -2.359375 L 1.4375 -1.078125 C 1.4375 -0.953125 1.46875 -0.851562 1.53125 -0.78125 C 1.601562 -0.707031 1.695312 -0.671875 1.8125 -0.671875 C 1.957031 -0.671875 2.082031 -0.707031 2.1875 -0.78125 Z M 2.421875 -0.15625 "/></g></g></g><g fill="#000000" fill-opacity="1"><g transform="translate(21.941871, 43.857569)"><g><path d="M 3.46875 -1.546875 C 3.46875 -1.535156 3.460938 -1.453125 3.453125 -1.296875 L 1.09375 -1.296875 C 1.132812 -1.109375 1.234375 -0.957031 1.390625 -0.84375 C 1.554688 -0.726562 1.753906 -0.671875 1.984375 -0.671875 C 2.148438 -0.671875 2.296875 -0.695312 2.421875 -0.75 C 2.546875 -0.800781 2.660156 -0.878906 2.765625 -0.984375 L 3.25 -0.453125 C 2.957031 -0.117188 2.53125 0.046875 1.96875 0.046875 C 1.613281 0.046875 1.300781 -0.0195312 1.03125 -0.15625 C 0.757812 -0.289062 0.550781 -0.476562 0.40625 -0.71875 C 0.257812 -0.96875 0.1875 -1.25 0.1875 -1.5625 C 0.1875 -1.863281 0.257812 -2.132812 0.40625 -2.375 C 0.550781 -2.625 0.75 -2.816406 1 -2.953125 C 1.25 -3.097656 1.53125 -3.171875 1.84375 -3.171875 C 2.15625 -3.171875 2.429688 -3.101562 2.671875 -2.96875 C 2.921875 -2.832031 3.113281 -2.640625 3.25 -2.390625 C 3.394531 -2.148438 3.46875 -1.867188 3.46875 -1.546875 Z M 1.859375 -2.484375 C 1.648438 -2.484375 1.472656 -2.425781 1.328125 -2.3125 C 1.191406 -2.195312 1.109375 -2.035156 1.078125 -1.828125 L 2.625 -1.828125 C 2.59375 -2.023438 2.503906 -2.179688 2.359375 -2.296875 C 2.222656 -2.421875 2.054688 -2.484375 1.859375 -2.484375 Z M 1.859375 -2.484375 "/></g></g></g><g fill="#000000" fill-opacity="1"><g transform="translate(25.601696, 43.857569)"><g><path d="M 1.921875 0.046875 C 1.585938 0.046875 1.285156 -0.0195312 1.015625 -0.15625 C 0.753906 -0.289062 0.550781 -0.476562 0.40625 -0.71875 C 0.257812 -0.96875 0.1875 -1.25 0.1875 -1.5625 C 0.1875 -1.863281 0.257812 -2.132812 0.40625 -2.375 C 0.550781 -2.625 0.753906 -2.816406 1.015625 -2.953125 C 1.285156 -3.097656 1.585938 -3.171875 1.921875 -3.171875 C 2.253906 -3.171875 2.539062 -3.097656 2.78125 -2.953125 C 3.03125 -2.816406 3.210938 -2.625 3.328125 -2.375 L 2.625 -2 C 2.457031 -2.28125 2.222656 -2.421875 1.921875 -2.421875 C 1.679688 -2.421875 1.484375 -2.34375 1.328125 -2.1875 C 1.171875 -2.03125 1.09375 -1.820312 1.09375 -1.5625 C 1.09375 -1.289062 1.171875 -1.078125 1.328125 -0.921875 C 1.484375 -0.773438 1.679688 -0.703125 1.921875 -0.703125 C 2.222656 -0.703125 2.457031 -0.84375 2.625 -1.125 L 3.328125 -0.734375 C 3.210938 -0.492188 3.03125 -0.300781 2.78125 -0.15625 C 2.539062 -0.0195312 2.253906 0.046875 1.921875 0.046875 Z M 1.921875 0.046875 "/></g></g></g><g fill="#000000" fill-opacity="1"><g transform="translate(29.029523, 43.857569)"><g><path d="M 2.421875 -0.15625 C 2.335938 -0.0820312 2.226562 -0.03125 2.09375 0 C 1.96875 0.03125 1.832031 0.046875 1.6875 0.046875 C 1.320312 0.046875 1.035156 -0.046875 0.828125 -0.234375 C 0.628906 -0.421875 0.53125 -0.703125 0.53125 -1.078125 L 0.53125 -2.359375 L 0.046875 -2.359375 L 0.046875 -3.046875 L 0.53125 -3.046875 L 0.53125 -3.8125 L 1.4375 -3.8125 L 1.4375 -3.046875 L 2.203125 -3.046875 L 2.203125 -2.359375 L 1.4375 -2.359375 L 1.4375 -1.078125 C 1.4375 -0.953125 1.46875 -0.851562 1.53125 -0.78125 C 1.601562 -0.707031 1.695312 -0.671875 1.8125 -0.671875 C 1.957031 -0.671875 2.082031 -0.707031 2.1875 -0.78125 Z M 2.421875 -0.15625 "/></g></g></g><g fill="#000000" fill-opacity="1"><g transform="translate(31.552538, 43.857569)"><g><path d="M 3.5625 -3.125 L 3.5625 0 L 2.703125 0 L 2.703125 -0.375 C 2.578125 -0.238281 2.429688 -0.132812 2.265625 -0.0625 C 2.097656 0.0078125 1.921875 0.046875 1.734375 0.046875 C 1.328125 0.046875 1.003906 -0.0664062 0.765625 -0.296875 C 0.523438 -0.535156 0.40625 -0.890625 0.40625 -1.359375 L 0.40625 -3.125 L 1.296875 -3.125 L 1.296875 -1.484375 C 1.296875 -0.984375 1.507812 -0.734375 1.9375 -0.734375 C 2.15625 -0.734375 2.328125 -0.800781 2.453125 -0.9375 C 2.585938 -1.082031 2.65625 -1.296875 2.65625 -1.578125 L 2.65625 -3.125 Z M 3.5625 -3.125 "/></g></g></g><g fill="#000000" fill-opacity="1"><g transform="translate(35.537169, 43.857569)"><g><path d="M 1.28125 -2.703125 C 1.382812 -2.859375 1.53125 -2.972656 1.71875 -3.046875 C 1.90625 -3.128906 2.117188 -3.171875 2.359375 -3.171875 L 2.359375 -2.328125 C 2.253906 -2.335938 2.1875 -2.34375 2.15625 -2.34375 C 1.894531 -2.34375 1.691406 -2.269531 1.546875 -2.125 C 1.398438 -1.976562 1.328125 -1.757812 1.328125 -1.46875 L 1.328125 0 L 0.421875 0 L 0.421875 -3.125 L 1.28125 -3.125 Z M 1.28125 -2.703125 "/></g></g></g><g fill="#000000" fill-opacity="1"><g transform="translate(38.036989, 43.857569)"><g><path d="M 3.46875 -1.546875 C 3.46875 -1.535156 3.460938 -1.453125 3.453125 -1.296875 L 1.09375 -1.296875 C 1.132812 -1.109375 1.234375 -0.957031 1.390625 -0.84375 C 1.554688 -0.726562 1.753906 -0.671875 1.984375 -0.671875 C 2.148438 -0.671875 2.296875 -0.695312 2.421875 -0.75 C 2.546875 -0.800781 2.660156 -0.878906 2.765625 -0.984375 L 3.25 -0.453125 C 2.957031 -0.117188 2.53125 0.046875 1.96875 0.046875 C 1.613281 0.046875 1.300781 -0.0195312 1.03125 -0.15625 C 0.757812 -0.289062 0.550781 -0.476562 0.40625 -0.71875 C 0.257812 -0.96875 0.1875 -1.25 0.1875 -1.5625 C 0.1875 -1.863281 0.257812 -2.132812 0.40625 -2.375 C 0.550781 -2.625 0.75 -2.816406 1 -2.953125 C 1.25 -3.097656 1.53125 -3.171875 1.84375 -3.171875 C 2.15625 -3.171875 2.429688 -3.101562 2.671875 -2.96875 C 2.921875 -2.832031 3.113281 -2.640625 3.25 -2.390625 C 3.394531 -2.148438 3.46875 -1.867188 3.46875 -1.546875 Z M 1.859375 -2.484375 C 1.648438 -2.484375 1.472656 -2.425781 1.328125 -2.3125 C 1.191406 -2.195312 1.109375 -2.035156 1.078125 -1.828125 L 2.625 -1.828125 C 2.59375 -2.023438 2.503906 -2.179688 2.359375 -2.296875 C 2.222656 -2.421875 2.054688 -2.484375 1.859375 -2.484375 Z M 1.859375 -2.484375 "/></g></g></g></svg>