<svg xmlns="http://www.w3.org/2000/svg" xmlns:xlink="http://www.w3.org/1999/xlink" width="60" zoomAndPan="magnify" viewBox="0 0 45 44.999999" height="60" preserveAspectRatio="xMidYMid meet" version="1.0"><defs><g/><clipPath id="1c5245701a"><path d="M 9.300781 4.019531 L 35.550781 4.019531 L 35.550781 30.269531 L 9.300781 30.269531 Z M 9.300781 4.019531 " clip-rule="nonzero"/></clipPath></defs><path fill="#000000" d="M 26.359375 18.648438 C 26.058594 18.648438 25.777344 18.738281 25.535156 18.902344 C 25.289062 18.71875 24.992188 18.617188 24.675781 18.617188 C 24.285156 18.617188 23.917969 18.765625 23.640625 19.042969 C 23.515625 19.171875 23.515625 19.378906 23.640625 19.507812 C 23.769531 19.636719 23.980469 19.636719 24.105469 19.507812 C 24.410156 19.203125 24.941406 19.203125 25.242188 19.507812 C 25.394531 19.660156 25.480469 19.859375 25.480469 20.074219 C 25.480469 20.289062 25.394531 20.492188 25.242188 20.644531 C 25.117188 20.773438 25.117188 20.980469 25.242188 21.109375 C 25.308594 21.171875 25.390625 21.203125 25.476562 21.203125 C 25.558594 21.203125 25.644531 21.171875 25.707031 21.109375 C 25.984375 20.832031 26.136719 20.464844 26.136719 20.074219 C 26.136719 19.839844 26.074219 19.617188 25.96875 19.414062 C 26.273438 19.25 26.675781 19.292969 26.925781 19.542969 C 26.988281 19.605469 27.074219 19.636719 27.15625 19.636719 C 27.242188 19.636719 27.324219 19.605469 27.390625 19.542969 C 27.519531 19.414062 27.519531 19.207031 27.390625 19.078125 C 27.113281 18.800781 26.746094 18.648438 26.359375 18.648438 Z M 26.359375 18.648438 " fill-opacity="1" fill-rule="nonzero"/><path fill="#000000" d="M 28.980469 17.703125 C 28.898438 17.621094 28.8125 17.542969 28.71875 17.46875 C 29.125 17.179688 29.390625 16.703125 29.390625 16.179688 C 29.390625 15.460938 28.910156 14.851562 28.257812 14.652344 C 28.40625 14.136719 28.382812 13.582031 28.175781 13.050781 C 27.933594 12.433594 27.417969 11.929688 26.792969 11.710938 C 26.28125 11.53125 25.757812 11.515625 25.277344 11.652344 C 25.296875 11.398438 25.257812 11.132812 25.152344 10.875 C 24.988281 10.480469 24.664062 10.167969 24.261719 10.027344 C 23.746094 9.84375 23.203125 9.914062 22.773438 10.21875 C 22.636719 10.3125 22.523438 10.429688 22.425781 10.554688 C 22.328125 10.429688 22.210938 10.3125 22.078125 10.21875 C 21.648438 9.914062 21.105469 9.84375 20.589844 10.027344 C 20.1875 10.167969 19.863281 10.480469 19.699219 10.875 C 19.59375 11.132812 19.550781 11.398438 19.574219 11.652344 C 19.09375 11.515625 18.570312 11.53125 18.058594 11.710938 C 17.433594 11.929688 16.914062 12.433594 16.675781 13.050781 C 16.46875 13.582031 16.441406 14.136719 16.59375 14.652344 C 15.9375 14.851562 15.460938 15.460938 15.460938 16.179688 C 15.460938 16.703125 15.722656 17.179688 16.128906 17.46875 C 16.039062 17.542969 15.953125 17.621094 15.871094 17.703125 C 15.4375 18.15625 15.203125 18.746094 15.203125 19.371094 C 15.203125 20.421875 15.871094 21.328125 16.835938 21.65625 C 16.742188 22.058594 16.789062 22.476562 16.964844 22.882812 C 17.152344 23.304688 17.507812 23.648438 17.941406 23.828125 C 18.453125 24.039062 18.984375 24.035156 19.464844 23.824219 C 19.828125 24.175781 20.304688 24.363281 20.800781 24.363281 C 21.054688 24.363281 21.308594 24.316406 21.5625 24.214844 C 21.917969 24.078125 22.214844 23.828125 22.425781 23.511719 C 22.632812 23.828125 22.933594 24.078125 23.289062 24.214844 C 23.539062 24.316406 23.796875 24.363281 24.046875 24.363281 C 24.546875 24.363281 25.019531 24.175781 25.386719 23.824219 C 25.867188 24.035156 26.398438 24.039062 26.910156 23.828125 C 27.34375 23.648438 27.699219 23.304688 27.882812 22.882812 C 28.0625 22.476562 28.105469 22.058594 28.015625 21.65625 C 28.980469 21.328125 29.648438 20.421875 29.648438 19.371094 C 29.648438 18.746094 29.410156 18.15625 28.980469 17.703125 Z M 21.324219 23.605469 C 20.636719 23.871094 20.082031 23.578125 19.792969 23.210938 C 19.726562 23.132812 19.632812 23.089844 19.535156 23.089844 C 19.476562 23.089844 19.417969 23.105469 19.363281 23.136719 C 19.109375 23.292969 18.703125 23.433594 18.191406 23.222656 C 17.914062 23.105469 17.683594 22.886719 17.566406 22.617188 C 17.367188 22.167969 17.453125 21.792969 17.554688 21.558594 C 17.597656 21.46875 17.59375 21.363281 17.542969 21.273438 C 17.496094 21.183594 17.410156 21.121094 17.3125 21.105469 C 16.46875 20.957031 15.859375 20.226562 15.859375 19.371094 C 15.859375 18.917969 16.03125 18.488281 16.34375 18.160156 C 16.523438 17.972656 16.746094 17.824219 16.988281 17.730469 C 17.125 17.675781 17.210938 17.535156 17.195312 17.390625 C 17.179688 17.242188 17.0625 17.121094 16.917969 17.101562 C 16.453125 17.03125 16.117188 16.644531 16.117188 16.179688 C 16.117188 15.664062 16.535156 15.246094 17.050781 15.242188 C 17.164062 15.242188 17.269531 15.183594 17.328125 15.085938 C 17.386719 14.988281 17.390625 14.867188 17.339844 14.765625 C 17.179688 14.445312 17.039062 13.929688 17.285156 13.289062 C 17.460938 12.847656 17.828125 12.488281 18.273438 12.332031 C 18.886719 12.117188 19.515625 12.214844 20.003906 12.601562 C 20.136719 12.707031 20.328125 12.691406 20.445312 12.570312 C 20.5625 12.449219 20.566406 12.257812 20.457031 12.128906 C 20.214844 11.847656 20.160156 11.480469 20.304688 11.125 C 20.394531 10.90625 20.585938 10.726562 20.808594 10.644531 C 21.121094 10.535156 21.445312 10.574219 21.699219 10.753906 C 21.949219 10.929688 22.097656 11.214844 22.097656 11.519531 L 22.097656 20.375 C 21.808594 20.148438 21.449219 20.007812 21.050781 20.007812 C 20.113281 20.007812 19.351562 20.769531 19.351562 21.707031 C 19.351562 21.886719 19.5 22.035156 19.679688 22.035156 C 19.859375 22.035156 20.007812 21.886719 20.007812 21.707031 C 20.007812 21.132812 20.476562 20.664062 21.050781 20.664062 C 21.628906 20.664062 22.097656 21.132812 22.097656 21.707031 L 22.097656 22.410156 C 22.097656 22.945312 21.785156 23.425781 21.324219 23.605469 Z M 27.539062 21.105469 C 27.4375 21.121094 27.351562 21.183594 27.304688 21.273438 C 27.257812 21.363281 27.253906 21.46875 27.292969 21.558594 C 27.398438 21.792969 27.480469 22.167969 27.285156 22.617188 C 27.164062 22.886719 26.9375 23.105469 26.660156 23.222656 C 26.144531 23.433594 25.738281 23.292969 25.488281 23.136719 C 25.347656 23.050781 25.160156 23.082031 25.058594 23.210938 C 24.769531 23.578125 24.214844 23.875 23.527344 23.605469 C 23.0625 23.425781 22.753906 22.945312 22.753906 22.410156 L 22.753906 15.851562 C 23.042969 16.082031 23.402344 16.222656 23.796875 16.222656 C 24.734375 16.222656 25.5 15.457031 25.5 14.519531 C 25.5 14.339844 25.351562 14.191406 25.171875 14.191406 C 24.988281 14.191406 24.84375 14.339844 24.84375 14.519531 C 24.84375 15.097656 24.375 15.566406 23.796875 15.566406 C 23.222656 15.566406 22.753906 15.097656 22.753906 14.519531 L 22.753906 11.519531 C 22.753906 11.214844 22.902344 10.929688 23.148438 10.753906 C 23.308594 10.640625 23.496094 10.582031 23.691406 10.582031 C 23.804688 10.582031 23.925781 10.605469 24.039062 10.644531 C 24.265625 10.726562 24.453125 10.90625 24.542969 11.125 C 24.691406 11.480469 24.636719 11.847656 24.394531 12.128906 C 24.285156 12.257812 24.289062 12.449219 24.40625 12.570312 C 24.523438 12.691406 24.714844 12.707031 24.847656 12.601562 C 25.332031 12.214844 25.964844 12.117188 26.574219 12.332031 C 27.023438 12.488281 27.390625 12.847656 27.5625 13.289062 C 27.8125 13.929688 27.671875 14.445312 27.507812 14.765625 C 27.457031 14.867188 27.464844 14.988281 27.523438 15.085938 C 27.582031 15.183594 27.6875 15.242188 27.800781 15.242188 C 28.316406 15.246094 28.734375 15.664062 28.734375 16.179688 C 28.734375 16.644531 28.398438 17.03125 27.933594 17.101562 C 27.785156 17.121094 27.671875 17.242188 27.65625 17.390625 C 27.640625 17.535156 27.722656 17.675781 27.863281 17.730469 C 28.105469 17.824219 28.324219 17.972656 28.503906 18.160156 C 28.820312 18.488281 28.992188 18.917969 28.992188 19.371094 C 28.992188 20.226562 28.382812 20.957031 27.539062 21.105469 Z M 27.539062 21.105469 " fill-opacity="1" fill-rule="nonzero"/><path fill="#000000" d="M 19.984375 17.160156 C 19.984375 17.34375 20.128906 17.488281 20.3125 17.488281 C 20.492188 17.488281 20.640625 17.34375 20.640625 17.160156 C 20.640625 16.648438 20.371094 16.195312 19.96875 15.9375 C 19.96875 15.933594 19.972656 15.933594 19.972656 15.933594 C 20.542969 15.363281 20.542969 14.4375 19.972656 13.867188 C 19.84375 13.738281 19.636719 13.738281 19.507812 13.867188 C 19.382812 13.996094 19.382812 14.203125 19.507812 14.332031 C 19.824219 14.644531 19.824219 15.15625 19.507812 15.46875 C 19.195312 15.78125 18.683594 15.78125 18.371094 15.46875 C 18.242188 15.339844 18.035156 15.339844 17.90625 15.46875 C 17.78125 15.597656 17.78125 15.804688 17.90625 15.933594 C 18.191406 16.214844 18.566406 16.359375 18.941406 16.359375 C 18.996094 16.359375 19.050781 16.347656 19.109375 16.34375 C 19.132812 16.347656 19.152344 16.355469 19.179688 16.355469 C 19.621094 16.355469 19.984375 16.71875 19.984375 17.160156 Z M 19.984375 17.160156 " fill-opacity="1" fill-rule="nonzero"/><g clip-path="url(#1c5245701a)"><path fill="#000000" d="M 35.222656 17.472656 C 35.402344 17.472656 35.550781 17.328125 35.550781 17.144531 C 35.550781 16.964844 35.402344 16.816406 35.222656 16.816406 L 32.269531 16.816406 L 32.269531 12.222656 L 33.980469 12.222656 C 34.105469 12.511719 34.394531 12.714844 34.730469 12.714844 C 35.183594 12.714844 35.550781 12.347656 35.550781 11.894531 C 35.550781 11.441406 35.183594 11.074219 34.730469 11.074219 C 34.394531 11.074219 34.105469 11.277344 33.980469 11.566406 L 32.269531 11.566406 L 32.269531 8.941406 C 32.269531 8.039062 31.53125 7.300781 30.628906 7.300781 L 28.003906 7.300781 L 28.003906 4.347656 C 28.003906 4.167969 27.859375 4.019531 27.675781 4.019531 C 27.496094 4.019531 27.347656 4.167969 27.347656 4.347656 L 27.347656 7.300781 L 22.753906 7.300781 L 22.753906 4.347656 C 22.753906 4.167969 22.609375 4.019531 22.425781 4.019531 C 22.246094 4.019531 22.097656 4.167969 22.097656 4.347656 L 22.097656 7.300781 L 17.503906 7.300781 L 17.503906 5.589844 C 17.792969 5.464844 17.996094 5.175781 17.996094 4.839844 C 17.996094 4.386719 17.628906 4.019531 17.175781 4.019531 C 16.722656 4.019531 16.355469 4.386719 16.355469 4.839844 C 16.355469 5.175781 16.558594 5.464844 16.847656 5.589844 L 16.847656 7.300781 L 14.222656 7.300781 C 13.316406 7.300781 12.582031 8.039062 12.582031 8.941406 L 12.582031 11.566406 L 9.628906 11.566406 C 9.445312 11.566406 9.300781 11.714844 9.300781 11.894531 C 9.300781 12.078125 9.445312 12.222656 9.628906 12.222656 L 12.582031 12.222656 L 12.582031 16.816406 L 9.628906 16.816406 C 9.445312 16.816406 9.300781 16.964844 9.300781 17.144531 C 9.300781 17.328125 9.445312 17.472656 9.628906 17.472656 L 12.582031 17.472656 L 12.582031 22.066406 L 10.871094 22.066406 C 10.746094 21.777344 10.457031 21.574219 10.121094 21.574219 C 9.667969 21.574219 9.300781 21.941406 9.300781 22.394531 C 9.300781 22.847656 9.667969 23.214844 10.121094 23.214844 C 10.457031 23.214844 10.746094 23.011719 10.871094 22.722656 L 12.582031 22.722656 L 12.582031 25.347656 C 12.582031 26.253906 13.316406 26.988281 14.222656 26.988281 L 16.847656 26.988281 L 16.847656 28.703125 C 16.558594 28.828125 16.355469 29.117188 16.355469 29.453125 C 16.355469 29.90625 16.722656 30.273438 17.175781 30.273438 C 17.628906 30.273438 17.996094 29.90625 17.996094 29.453125 C 17.996094 29.117188 17.792969 28.828125 17.503906 28.699219 L 17.503906 26.988281 L 22.097656 26.988281 L 22.097656 29.941406 C 22.097656 30.125 22.242188 30.269531 22.425781 30.269531 C 22.605469 30.269531 22.753906 30.125 22.753906 29.941406 L 22.753906 26.988281 L 27.347656 26.988281 L 27.347656 29.941406 C 27.347656 30.125 27.492188 30.269531 27.675781 30.269531 C 27.855469 30.269531 28.003906 30.125 28.003906 29.941406 L 28.003906 26.988281 L 30.628906 26.988281 C 31.53125 26.988281 32.269531 26.253906 32.269531 25.347656 L 32.269531 22.722656 L 35.222656 22.722656 C 35.402344 22.722656 35.550781 22.578125 35.550781 22.394531 C 35.550781 22.214844 35.402344 22.066406 35.222656 22.066406 L 32.269531 22.066406 L 32.269531 17.472656 Z M 31.613281 25.347656 C 31.613281 25.890625 31.171875 26.332031 30.628906 26.332031 L 14.222656 26.332031 C 13.679688 26.332031 13.238281 25.890625 13.238281 25.347656 L 13.238281 8.941406 C 13.238281 8.398438 13.679688 7.957031 14.222656 7.957031 L 30.628906 7.957031 C 31.171875 7.957031 31.613281 8.398438 31.613281 8.941406 Z M 31.613281 25.347656 " fill-opacity="1" fill-rule="nonzero"/></g><g fill="#000000" fill-opacity="1"><g transform="translate(15.692321, 36.953686)"><g><path d="M 3.21875 -2.09375 L 4.078125 -2.09375 L 4.078125 -0.453125 C 3.859375 -0.285156 3.601562 -0.15625 3.3125 -0.0625 C 3.019531 0.0195312 2.726562 0.0625 2.4375 0.0625 C 2.019531 0.0625 1.640625 -0.0234375 1.296875 -0.203125 C 0.960938 -0.378906 0.695312 -0.625 0.5 -0.9375 C 0.3125 -1.257812 0.21875 -1.625 0.21875 -2.03125 C 0.21875 -2.425781 0.3125 -2.785156 0.5 -3.109375 C 0.695312 -3.429688 0.960938 -3.679688 1.296875 -3.859375 C 1.640625 -4.035156 2.023438 -4.125 2.453125 -4.125 C 2.804688 -4.125 3.128906 -4.0625 3.421875 -3.9375 C 3.710938 -3.820312 3.957031 -3.648438 4.15625 -3.421875 L 3.546875 -2.875 C 3.265625 -3.175781 2.914062 -3.328125 2.5 -3.328125 C 2.238281 -3.328125 2.007812 -3.269531 1.8125 -3.15625 C 1.613281 -3.050781 1.457031 -2.898438 1.34375 -2.703125 C 1.226562 -2.503906 1.171875 -2.28125 1.171875 -2.03125 C 1.171875 -1.78125 1.226562 -1.554688 1.34375 -1.359375 C 1.457031 -1.160156 1.613281 -1.003906 1.8125 -0.890625 C 2.007812 -0.785156 2.238281 -0.734375 2.5 -0.734375 C 2.769531 -0.734375 3.007812 -0.789062 3.21875 -0.90625 Z M 3.21875 -2.09375 "/></g></g></g><g fill="#000000" fill-opacity="1"><g transform="translate(20.164145, 36.953686)"><g><path d="M 1.328125 -3.296875 L 0.015625 -3.296875 L 0.015625 -4.0625 L 3.5625 -4.0625 L 3.5625 -3.296875 L 2.265625 -3.296875 L 2.265625 0 L 1.328125 0 Z M 1.328125 -3.296875 "/></g></g></g><g fill="#000000" fill-opacity="1"><g transform="translate(23.748563, 36.953686)"><g><path d="M 4.171875 0 L 4.171875 -2.4375 L 2.96875 -0.421875 L 2.546875 -0.421875 L 1.359375 -2.375 L 1.359375 0 L 0.484375 0 L 0.484375 -4.0625 L 1.265625 -4.0625 L 2.78125 -1.53125 L 4.265625 -4.0625 L 5.046875 -4.0625 L 5.0625 0 Z M 4.171875 0 "/></g></g></g><g fill="#000000" fill-opacity="1"><g transform="translate(11.803003, 42.753679)"><g><path d="M 3.625 -0.75 L 3.625 0 L 0.484375 0 L 0.484375 -4.0625 L 3.546875 -4.0625 L 3.546875 -3.296875 L 1.421875 -3.296875 L 1.421875 -2.421875 L 3.296875 -2.421875 L 3.296875 -1.6875 L 1.421875 -1.6875 L 1.421875 -0.75 Z M 3.625 -0.75 "/></g></g></g><g fill="#000000" fill-opacity="1"><g transform="translate(15.694829, 42.753679)"><g><path d="M 2.3125 -3.171875 C 2.695312 -3.171875 3.007812 -3.050781 3.25 -2.8125 C 3.488281 -2.582031 3.609375 -2.238281 3.609375 -1.78125 L 3.609375 0 L 2.703125 0 L 2.703125 -1.640625 C 2.703125 -1.890625 2.644531 -2.070312 2.53125 -2.1875 C 2.425781 -2.3125 2.269531 -2.375 2.0625 -2.375 C 1.84375 -2.375 1.664062 -2.300781 1.53125 -2.15625 C 1.394531 -2.019531 1.328125 -1.816406 1.328125 -1.546875 L 1.328125 0 L 0.421875 0 L 0.421875 -3.125 L 1.28125 -3.125 L 1.28125 -2.75 C 1.394531 -2.882812 1.539062 -2.988281 1.71875 -3.0625 C 1.90625 -3.132812 2.101562 -3.171875 2.3125 -3.171875 Z M 2.3125 -3.171875 "/></g></g></g><g fill="#000000" fill-opacity="1"><g transform="translate(19.70265, 42.753679)"><g><path d="M 3.640625 -3.125 L 3.640625 -0.515625 C 3.640625 0.0546875 3.488281 0.476562 3.1875 0.75 C 2.882812 1.03125 2.453125 1.171875 1.890625 1.171875 C 1.585938 1.171875 1.300781 1.132812 1.03125 1.0625 C 0.757812 0.988281 0.535156 0.878906 0.359375 0.734375 L 0.71875 0.09375 C 0.84375 0.195312 1.003906 0.28125 1.203125 0.34375 C 1.410156 0.414062 1.613281 0.453125 1.8125 0.453125 C 2.125 0.453125 2.351562 0.378906 2.5 0.234375 C 2.65625 0.0859375 2.734375 -0.125 2.734375 -0.40625 L 2.734375 -0.546875 C 2.492188 -0.285156 2.164062 -0.15625 1.75 -0.15625 C 1.457031 -0.15625 1.191406 -0.21875 0.953125 -0.34375 C 0.722656 -0.46875 0.535156 -0.644531 0.390625 -0.875 C 0.253906 -1.101562 0.1875 -1.363281 0.1875 -1.65625 C 0.1875 -1.957031 0.253906 -2.21875 0.390625 -2.4375 C 0.535156 -2.664062 0.722656 -2.84375 0.953125 -2.96875 C 1.191406 -3.101562 1.457031 -3.171875 1.75 -3.171875 C 2.195312 -3.171875 2.539062 -3.019531 2.78125 -2.71875 L 2.78125 -3.125 Z M 1.921875 -0.890625 C 2.160156 -0.890625 2.351562 -0.957031 2.5 -1.09375 C 2.65625 -1.238281 2.734375 -1.425781 2.734375 -1.65625 C 2.734375 -1.882812 2.65625 -2.066406 2.5 -2.203125 C 2.351562 -2.347656 2.160156 -2.421875 1.921875 -2.421875 C 1.679688 -2.421875 1.484375 -2.347656 1.328125 -2.203125 C 1.171875 -2.066406 1.09375 -1.882812 1.09375 -1.65625 C 1.09375 -1.425781 1.171875 -1.238281 1.328125 -1.09375 C 1.484375 -0.957031 1.679688 -0.890625 1.921875 -0.890625 Z M 1.921875 -0.890625 "/></g></g></g><g fill="#000000" fill-opacity="1"><g transform="translate(23.762671, 42.753679)"><g><path d="M 0.421875 -3.125 L 1.328125 -3.125 L 1.328125 0 L 0.421875 0 Z M 0.875 -3.546875 C 0.707031 -3.546875 0.570312 -3.59375 0.46875 -3.6875 C 0.363281 -3.789062 0.3125 -3.914062 0.3125 -4.0625 C 0.3125 -4.195312 0.363281 -4.3125 0.46875 -4.40625 C 0.570312 -4.507812 0.707031 -4.5625 0.875 -4.5625 C 1.039062 -4.5625 1.175781 -4.515625 1.28125 -4.421875 C 1.382812 -4.328125 1.4375 -4.210938 1.4375 -4.078125 C 1.4375 -3.921875 1.382812 -3.789062 1.28125 -3.6875 C 1.175781 -3.59375 1.039062 -3.546875 0.875 -3.546875 Z M 0.875 -3.546875 "/></g></g></g><g fill="#000000" fill-opacity="1"><g transform="translate(25.508483, 42.753679)"><g><path d="M 2.3125 -3.171875 C 2.695312 -3.171875 3.007812 -3.050781 3.25 -2.8125 C 3.488281 -2.582031 3.609375 -2.238281 3.609375 -1.78125 L 3.609375 0 L 2.703125 0 L 2.703125 -1.640625 C 2.703125 -1.890625 2.644531 -2.070312 2.53125 -2.1875 C 2.425781 -2.3125 2.269531 -2.375 2.0625 -2.375 C 1.84375 -2.375 1.664062 -2.300781 1.53125 -2.15625 C 1.394531 -2.019531 1.328125 -1.816406 1.328125 -1.546875 L 1.328125 0 L 0.421875 0 L 0.421875 -3.125 L 1.28125 -3.125 L 1.28125 -2.75 C 1.394531 -2.882812 1.539062 -2.988281 1.71875 -3.0625 C 1.90625 -3.132812 2.101562 -3.171875 2.3125 -3.171875 Z M 2.3125 -3.171875 "/></g></g></g><g fill="#000000" fill-opacity="1"><g transform="translate(29.516304, 42.753679)"><g><path d="M 3.46875 -1.546875 C 3.46875 -1.535156 3.460938 -1.453125 3.453125 -1.296875 L 1.09375 -1.296875 C 1.132812 -1.109375 1.234375 -0.957031 1.390625 -0.84375 C 1.554688 -0.726562 1.753906 -0.671875 1.984375 -0.671875 C 2.148438 -0.671875 2.296875 -0.695312 2.421875 -0.75 C 2.546875 -0.800781 2.660156 -0.878906 2.765625 -0.984375 L 3.25 -0.453125 C 2.957031 -0.117188 2.53125 0.046875 1.96875 0.046875 C 1.613281 0.046875 1.300781 -0.0195312 1.03125 -0.15625 C 0.757812 -0.289062 0.550781 -0.476562 0.40625 -0.71875 C 0.257812 -0.96875 0.1875 -1.25 0.1875 -1.5625 C 0.1875 -1.863281 0.257812 -2.132812 0.40625 -2.375 C 0.550781 -2.625 0.75 -2.816406 1 -2.953125 C 1.25 -3.097656 1.53125 -3.171875 1.84375 -3.171875 C 2.15625 -3.171875 2.429688 -3.101562 2.671875 -2.96875 C 2.921875 -2.832031 3.113281 -2.640625 3.25 -2.390625 C 3.394531 -2.148438 3.46875 -1.867188 3.46875 -1.546875 Z M 1.859375 -2.484375 C 1.648438 -2.484375 1.472656 -2.425781 1.328125 -2.3125 C 1.191406 -2.195312 1.109375 -2.035156 1.078125 -1.828125 L 2.625 -1.828125 C 2.59375 -2.023438 2.503906 -2.179688 2.359375 -2.296875 C 2.222656 -2.421875 2.054688 -2.484375 1.859375 -2.484375 Z M 1.859375 -2.484375 "/></g></g></g></svg>