<svg xmlns="http://www.w3.org/2000/svg" xmlns:xlink="http://www.w3.org/1999/xlink" width="46" zoomAndPan="magnify" viewBox="0 0 34.5 37.499999" height="50" preserveAspectRatio="xMidYMid meet" version="1.0"><defs><clipPath id="d4fe24bb20"><path d="M 16 5.386719 L 18 5.386719 L 18 9 L 16 9 Z M 16 5.386719 " clip-rule="nonzero"/></clipPath><clipPath id="0e8218adb1"><path d="M 11 15 L 23 15 L 23 31.261719 L 11 31.261719 Z M 11 15 " clip-rule="nonzero"/></clipPath><clipPath id="3e66e46641"><path d="M 6 16 L 14 16 L 14 31.261719 L 6 31.261719 Z M 6 16 " clip-rule="nonzero"/></clipPath><clipPath id="6390711368"><path d="M 20 16 L 28 16 L 28 31.261719 L 20 31.261719 Z M 20 16 " clip-rule="nonzero"/></clipPath><clipPath id="1759acad91"><path d="M 26 17 L 32.964844 17 L 32.964844 31 L 26 31 Z M 26 17 " clip-rule="nonzero"/></clipPath><clipPath id="28e4b102be"><path d="M 1.175781 17 L 8 17 L 8 31 L 1.175781 31 Z M 1.175781 17 " clip-rule="nonzero"/></clipPath></defs><g clip-path="url(#d4fe24bb20)"><path fill="#2b77c1" d="M 16.929688 5.5 C 17.328125 5.402344 17.777344 5.730469 17.761719 6.144531 C 17.769531 6.894531 17.765625 7.644531 17.753906 8.398438 C 17.742188 8.761719 17.355469 9.042969 16.996094 8.996094 C 16.6875 8.964844 16.40625 8.707031 16.390625 8.394531 C 16.386719 7.644531 16.390625 6.894531 16.386719 6.144531 C 16.382812 5.839844 16.625 5.554688 16.929688 5.5 Z M 16.929688 5.5 " fill-opacity="1" fill-rule="nonzero"/></g><path fill="#2b77c1" d="M 12.726562 7.332031 C 12.933594 7.265625 13.175781 7.300781 13.34375 7.441406 C 13.855469 7.882812 14.363281 8.328125 14.878906 8.765625 C 15.128906 8.964844 15.136719 9.351562 14.953125 9.597656 C 14.75 9.882812 14.296875 9.957031 14.023438 9.734375 C 13.554688 9.347656 13.117188 8.925781 12.644531 8.542969 C 12.519531 8.433594 12.359375 8.335938 12.300781 8.171875 C 12.167969 7.839844 12.375 7.425781 12.726562 7.332031 Z M 12.726562 7.332031 " fill-opacity="1" fill-rule="nonzero"/><path fill="#2b77c1" d="M 21 7.332031 C 21.539062 7.125 22.140625 7.789062 21.789062 8.269531 C 21.269531 8.757812 20.710938 9.210938 20.1875 9.695312 C 19.941406 9.945312 19.5 9.917969 19.265625 9.667969 C 19.015625 9.433594 19.011719 8.984375 19.28125 8.765625 C 19.734375 8.375 20.175781 7.976562 20.628906 7.585938 C 20.742188 7.488281 20.851562 7.375 21 7.332031 Z M 21 7.332031 " fill-opacity="1" fill-rule="nonzero"/><path fill="#2b77c1" d="M 16.71875 10.128906 C 17.878906 9.929688 19.121094 10.71875 19.359375 11.859375 C 19.621094 12.863281 19.082031 13.976562 18.160156 14.457031 C 17.390625 14.875 16.386719 14.785156 15.695312 14.257812 C 14.964844 13.738281 14.613281 12.777344 14.8125 11.917969 C 14.988281 11.011719 15.785156 10.261719 16.71875 10.128906 Z M 16.71875 10.128906 " fill-opacity="1" fill-rule="nonzero"/><path fill="#3b4551" d="M 10.777344 11.546875 C 11.605469 11.429688 12.484375 11.820312 12.929688 12.519531 C 13.523438 13.414062 13.296875 14.722656 12.421875 15.363281 C 11.625 16.027344 10.34375 15.945312 9.59375 15.246094 C 8.898438 14.632812 8.699219 13.558594 9.109375 12.738281 C 9.414062 12.097656 10.066406 11.636719 10.777344 11.546875 Z M 10.777344 11.546875 " fill-opacity="1" fill-rule="nonzero"/><path fill="#3b4551" d="M 22.785156 11.546875 C 23.722656 11.402344 24.707031 11.9375 25.082031 12.785156 C 25.488281 13.660156 25.210938 14.78125 24.425781 15.359375 C 23.625 16.023438 22.320312 15.953125 21.582031 15.226562 C 20.949219 14.640625 20.722656 13.671875 21.058594 12.882812 C 21.339844 12.179688 22.023438 11.652344 22.785156 11.546875 Z M 22.785156 11.546875 " fill-opacity="1" fill-rule="nonzero"/><path fill="#3b4551" d="M 5.171875 12.535156 C 6.320312 12.285156 7.5625 13.191406 7.609375 14.351562 C 7.707031 15.285156 7.050781 16.230469 6.125 16.46875 C 5.03125 16.804688 3.75 16.054688 3.539062 14.941406 C 3.273438 13.875 4.0625 12.703125 5.171875 12.535156 Z M 5.171875 12.535156 " fill-opacity="1" fill-rule="nonzero"/><path fill="#3b4551" d="M 28.214844 12.539062 C 29.019531 12.367188 29.894531 12.746094 30.34375 13.417969 C 30.875 14.199219 30.738281 15.34375 30.023438 15.976562 C 29.394531 16.589844 28.355469 16.714844 27.589844 16.285156 C 26.785156 15.867188 26.371094 14.894531 26.597656 14.035156 C 26.773438 13.277344 27.441406 12.675781 28.214844 12.539062 Z M 28.214844 12.539062 " fill-opacity="1" fill-rule="nonzero"/><g clip-path="url(#0e8218adb1)"><path fill="#2b77c1" d="M 14.382812 15.292969 C 16.074219 15.257812 17.765625 15.28125 19.457031 15.277344 C 20.824219 15.273438 22.191406 16.34375 22.265625 17.726562 C 22.269531 19.421875 22.265625 21.117188 22.265625 22.8125 C 22.277344 23.167969 22.035156 23.515625 21.691406 23.632812 C 21.199219 23.8125 20.574219 23.464844 20.53125 22.9375 C 20.515625 21.3125 20.546875 19.6875 20.511719 18.058594 C 20.488281 17.710938 19.890625 17.722656 19.863281 18.066406 C 19.847656 19.96875 19.867188 21.871094 19.847656 23.769531 C 19.714844 25.992188 19.566406 28.210938 19.433594 30.429688 C 19.367188 30.910156 18.882812 31.273438 18.398438 31.261719 C 17.910156 31.261719 17.425781 30.886719 17.390625 30.398438 C 17.375 28.367188 17.398438 26.339844 17.375 24.3125 C 17.375 23.976562 16.816406 23.945312 16.769531 24.269531 C 16.757812 26.285156 16.769531 28.300781 16.761719 30.316406 C 16.761719 30.8125 16.296875 31.222656 15.808594 31.253906 C 15.28125 31.296875 14.738281 30.886719 14.703125 30.355469 C 14.574219 28.160156 14.421875 25.96875 14.316406 23.769531 C 14.308594 21.867188 14.316406 19.96875 14.308594 18.066406 C 14.28125 17.714844 13.6875 17.710938 13.664062 18.066406 C 13.652344 19.664062 13.664062 21.257812 13.65625 22.855469 C 13.65625 23.296875 13.246094 23.6875 12.796875 23.679688 C 12.339844 23.707031 11.90625 23.308594 11.914062 22.855469 C 11.910156 21.144531 11.910156 19.4375 11.910156 17.726562 C 11.988281 16.464844 13.132812 15.433594 14.382812 15.292969 Z M 14.382812 15.292969 " fill-opacity="1" fill-rule="nonzero"/></g><g clip-path="url(#3e66e46641)"><path fill="#3b4551" d="M 6.503906 18.644531 C 6.566406 17.421875 7.699219 16.402344 8.933594 16.367188 C 9.84375 16.355469 10.753906 16.359375 11.664062 16.363281 C 11.414062 16.804688 11.25 17.304688 11.253906 17.8125 C 11.253906 19.492188 11.253906 21.171875 11.246094 22.855469 C 11.246094 23.390625 11.574219 23.921875 12.070312 24.152344 C 12.570312 24.417969 13.207031 24.351562 13.679688 24.054688 C 13.574219 26.113281 13.425781 28.171875 13.308594 30.230469 C 13.242188 30.851562 12.457031 31.195312 11.910156 30.933594 C 11.628906 30.808594 11.390625 30.542969 11.378906 30.230469 C 11.371094 28.324219 11.378906 26.421875 11.367188 24.519531 C 11.367188 24.15625 10.765625 24.15625 10.757812 24.519531 C 10.746094 26.394531 10.753906 28.273438 10.75 30.148438 C 10.761719 30.640625 10.261719 31.027344 9.785156 31.019531 C 9.316406 31.03125 8.832031 30.667969 8.8125 30.191406 C 8.703125 28.050781 8.550781 25.910156 8.460938 23.769531 C 8.457031 22.148438 8.464844 20.523438 8.453125 18.898438 C 8.421875 18.570312 7.863281 18.566406 7.828125 18.894531 C 7.8125 20.367188 7.828125 21.839844 7.820312 23.316406 C 7.828125 23.640625 7.515625 23.910156 7.195312 23.910156 C 6.839844 23.929688 6.511719 23.621094 6.511719 23.273438 C 6.503906 21.730469 6.503906 20.1875 6.503906 18.644531 Z M 6.503906 18.644531 " fill-opacity="1" fill-rule="nonzero"/></g><g clip-path="url(#6390711368)"><path fill="#3b4551" d="M 22.539062 16.363281 C 23.421875 16.367188 24.304688 16.359375 25.1875 16.363281 C 26.398438 16.394531 27.570312 17.339844 27.65625 18.5625 C 27.664062 20.117188 27.652344 21.675781 27.65625 23.230469 C 27.667969 23.59375 27.335938 23.917969 26.96875 23.910156 C 26.644531 23.917969 26.328125 23.640625 26.34375 23.316406 C 26.34375 21.839844 26.34375 20.367188 26.339844 18.894531 C 26.308594 18.554688 25.730469 18.554688 25.710938 18.898438 C 25.691406 20.523438 25.710938 22.148438 25.699219 23.769531 C 25.621094 25.949219 25.460938 28.121094 25.328125 30.296875 C 25.21875 30.878906 24.488281 31.167969 23.960938 30.933594 C 23.671875 30.820312 23.425781 30.550781 23.410156 30.234375 C 23.40625 28.316406 23.417969 26.394531 23.40625 24.476562 C 23.382812 24.136719 22.824219 24.144531 22.792969 24.476562 C 22.789062 26.410156 22.796875 28.339844 22.792969 30.273438 C 22.722656 30.773438 22.15625 31.101562 21.667969 31.011719 C 21.269531 30.953125 20.882812 30.644531 20.847656 30.230469 C 20.71875 28.160156 20.582031 26.09375 20.476562 24.023438 C 20.847656 24.261719 21.316406 24.390625 21.757812 24.28125 C 22.429688 24.140625 22.949219 23.488281 22.921875 22.8125 C 22.910156 21.132812 22.925781 19.449219 22.914062 17.769531 C 22.910156 17.277344 22.757812 16.800781 22.539062 16.363281 Z M 22.539062 16.363281 " fill-opacity="1" fill-rule="nonzero"/></g><g clip-path="url(#1759acad91)"><path fill="#3b4551" d="M 27.800781 17.082031 C 28.699219 17.082031 29.597656 17.074219 30.492188 17.082031 C 31.691406 17.125 32.8125 18.113281 32.859375 19.3125 C 32.859375 20.796875 32.859375 22.285156 32.851562 23.773438 C 32.863281 24.140625 32.507812 24.441406 32.144531 24.425781 C 31.828125 24.4375 31.523438 24.171875 31.519531 23.855469 C 31.515625 22.410156 31.523438 20.964844 31.523438 19.519531 C 31.507812 19.226562 31.023438 19.230469 31 19.519531 C 30.976562 21.242188 31.019531 22.964844 30.972656 24.6875 C 30.871094 26.464844 30.753906 28.238281 30.644531 30.015625 C 30.621094 30.351562 30.332031 30.632812 30.007812 30.710938 C 29.523438 30.851562 28.90625 30.507812 28.90625 29.980469 C 28.898438 28.300781 28.910156 26.621094 28.898438 24.945312 C 28.851562 24.671875 28.394531 24.679688 28.351562 24.953125 C 28.335938 26.628906 28.347656 28.304688 28.34375 29.980469 C 28.335938 30.355469 28.007812 30.664062 27.644531 30.722656 C 27.1875 30.820312 26.636719 30.507812 26.601562 30.023438 C 26.492188 28.136719 26.355469 26.246094 26.273438 24.355469 C 26.683594 24.566406 27.199219 24.636719 27.613281 24.402344 C 28.0625 24.175781 28.296875 23.667969 28.289062 23.1875 C 28.285156 21.660156 28.296875 20.132812 28.277344 18.605469 C 28.285156 18.0625 28.097656 17.53125 27.800781 17.082031 Z M 27.800781 17.082031 " fill-opacity="1" fill-rule="nonzero"/></g><g clip-path="url(#28e4b102be)"><path fill="#3b4551" d="M 1.28125 19.3125 C 1.339844 18.121094 2.441406 17.152344 3.632812 17.089844 C 4.546875 17.074219 5.457031 17.097656 6.371094 17.074219 C 6.070312 17.546875 5.875 18.085938 5.875 18.644531 C 5.875 20.199219 5.867188 21.757812 5.875 23.3125 C 5.886719 23.871094 6.300781 24.390625 6.863281 24.515625 C 7.210938 24.609375 7.574219 24.511719 7.886719 24.355469 C 7.800781 26.253906 7.65625 28.148438 7.546875 30.046875 C 7.5 30.367188 7.234375 30.632812 6.917969 30.710938 C 6.433594 30.859375 5.816406 30.503906 5.804688 29.984375 C 5.804688 28.316406 5.808594 26.648438 5.804688 24.976562 C 5.777344 24.671875 5.265625 24.664062 5.246094 24.976562 C 5.222656 26.671875 5.25 28.367188 5.230469 30.058594 C 5.140625 30.707031 4.222656 30.960938 3.761719 30.519531 C 3.597656 30.367188 3.496094 30.15625 3.496094 29.9375 C 3.390625 28.003906 3.277344 26.074219 3.160156 24.144531 C 3.148438 22.601562 3.164062 21.058594 3.15625 19.519531 C 3.136719 19.21875 2.640625 19.230469 2.632812 19.527344 C 2.628906 20.953125 2.632812 22.382812 2.628906 23.8125 C 2.636719 24.148438 2.316406 24.441406 1.976562 24.433594 C 1.613281 24.449219 1.265625 24.132812 1.28125 23.769531 C 1.28125 22.285156 1.28125 20.800781 1.28125 19.3125 Z M 1.28125 19.3125 " fill-opacity="1" fill-rule="nonzero"/></g></svg>